<?xml version="1.0" encoding="UTF-8"?>
<!DOCTYPE svg  PUBLIC '-//W3C//DTD SVG 1.1//EN'  'http://www.w3.org/Graphics/SVG/1.1/DTD/svg11.dtd'>
<svg version="1.1" xmlns="http://www.w3.org/2000/svg">
<metadata>Created by FontForge 20181014 at Mon Dec 19 13:00:10 2011
 By convertio</metadata>
<defs>
<font id="a" horiz-adv-x="500">
<font-face font-family="Caslon540W01-Regular" font-weight="400" ascent="740" bbox="-90 -236 1099 965" cap-height="694" descent="-260" panose-1="2 2 5 2 5 5 6 2 3 3" underline-position="-100" underline-thickness="50" unicode-range="U+0020-2122" units-per-em="1000" x-height="437"/>
<missing-glyph horiz-adv-x="0"/>
<glyph glyph-name=".notdef" horiz-adv-x="0"/>
<glyph glyph-name="glyph1" horiz-adv-x="0"/>
<glyph glyph-name="glyph2" horiz-adv-x="0"/>
<glyph glyph-name="space" horiz-adv-x="252" unicode=" "/>
<glyph glyph-name="space" horiz-adv-x="252" unicode=" "/>
<glyph d="M471 186q-34 48 -88.5 106t-130.5 121q-125 -54 -125 -168q0 -36 11 -66t30.5 -52t47 -34t60.5 -12q48 0 98 26t97 79zM792 66q-17 -32 -50 -50.5t-69 -18.5q-32 0 -54.5 12t-43 34.5t-42 53t-49.5 68.5q-35 -44 -66 -77.5t-61.5 -56t-62.5 -33.5t-68 -11q-40 0 -74 16 t-59 44t-39.5 65.5t-14.5 80.5q0 38 11.5 70t34.5 60.5t58.5 54t82.5 51.5q-33 29 -50 57.5t-17 58.5q0 26 16 53.5t46 53.5q33 28 67 42t65 14q25 0 47 -8t37.5 -22t24.5 -33t9 -40q0 -38 -33 -71.5t-98 -77.5q44 -38 91.5 -83t95.5 -111l102 145q14 20 14 34q0 33 -69 33 v23h216v-25h-2q-28 0 -51.5 -11t-47.5 -32.5t-49.5 -54.5t-57.5 -76l-40 -55q32 -48 57.5 -85t46 -62t38.5 -38t35 -13q32 0 54 33zM323 472q42 27 62 51.5t20 53.5q0 19 -7 36t-19.5 30t-28.5 21t-34 8t-34 -6.5t-29 -17.5t-20.5 -26t-7.5 -32q0 -46 98 -118z" glyph-name="ampersand" horiz-adv-x="824" unicode="&amp;"/>
<glyph d="M77 422l-32 223q-1 5 -1 9.5v9.5q0 50 41 50q20 0 31 -12.5t11 -36.5q0 -4 -0.5 -9t-1.5 -11l-32 -223h-16z" glyph-name="quotesingle" horiz-adv-x="170" unicode="'"/>
<glyph d="M341 694q-73 -94 -107.5 -195t-34.5 -222q0 -128 34 -232.5t108 -198.5l-19 -11q-104 101 -156.5 214.5t-52.5 220.5t52.5 221t156.5 215z" glyph-name="parenleft" horiz-adv-x="405" unicode="("/>
<glyph d="M83 706q104 -101 156.5 -215t52.5 -221t-52.5 -220.5t-156.5 -214.5l-18 11q74 94 107.5 198.5t33.5 232.5q0 121 -34 222t-107 195z" glyph-name="parenright" horiz-adv-x="405" unicode=")"/>
<glyph d="M248 537q-80 118 -80 147q0 23 24 23q22 0 36 -41t29 -126l3 -2q17 85 30 126.5t32 41.5q9 0 17.5 -7t8.5 -20q0 -18 -20.5 -53.5t-59.5 -91.5l2 -1q116 80 147 80q11 0 17 -7t6 -18q0 -22 -41.5 -35.5t-126.5 -28.5v-4q85 -17 126.5 -30t41.5 -32q0 -9 -7 -17.5 t-20 -8.5q-18 0 -53.5 20.5t-91.5 59.5l-3 -2q80 -118 80 -147q0 -22 -25 -22q-22 0 -35.5 41t-28.5 126l-3 -1q-17 -85 -30 -126t-32 -41q-9 0 -17.5 6.5t-8.5 19.5q0 14 17.5 48t62.5 98l-2 4q-119 -80 -145 -80q-25 0 -25 25q0 22 41 35.5t126 28.5l1 2q-85 17 -126 30 t-41 32q0 9 6.5 17.5t19.5 8.5q18 0 54 -20.5t92 -59.5z" glyph-name="asterisk" horiz-adv-x="514" unicode="*"/>
<glyph d="M446 596v-269h263v-57h-263v-270h-58v270h-264v57h264v269h58z" glyph-name="plus" horiz-adv-x="833" unicode="+"/>
<glyph d="M81 -134q36 32 55 57.5t19 48.5q0 9 -3 14t-8.5 8t-13.5 5.5t-18 6.5q-50 18 -50 57q0 22 15 35.5t39 13.5q34 0 57.5 -28.5t23.5 -74.5q0 -87 -100 -160z" glyph-name="comma" horiz-adv-x="252" unicode=","/>
<glyph d="M41 252h246v-67h-246v67z" glyph-name="hyphen" horiz-adv-x="329" unicode="-"/>
<glyph d="M41 252h246v-67h-246v67z" glyph-name="hyphen" horiz-adv-x="329" unicode="‐"/>
<glyph d="M41 252h246v-67h-246v67z" glyph-name="hyphen" horiz-adv-x="329" unicode="­"/>
<glyph d="M67 53q0 26 16.5 42.5t42.5 16.5q25 0 42 -17t17 -42q0 -24 -17.5 -41.5t-41.5 -17.5q-25 0 -42 17.5t-17 41.5z" glyph-name="period" horiz-adv-x="252" unicode="."/>
<glyph d="M-17 -93l245 799h56l-244 -799h-57z" glyph-name="slash" horiz-adv-x="277" unicode="/"/>
<glyph d="M466 327q0 -78 -16.5 -140.5t-45.5 -106.5t-68 -68t-84 -24t-84 23.5t-67.5 68t-45 108.5t-16.5 145t16.5 145t45 108.5t67.5 68.5t84 24t84 -24t68 -69t45.5 -110.5t16.5 -148.5zM252 9q59 0 90 81t31 243t-31 243t-90 81t-90 -81.5t-31 -242.5t31 -242.5t90 -81.5z" glyph-name="zero" horiz-adv-x="505" unicode="0"/>
<glyph d="M119 21q34 1 53.5 4t28.5 10t11 20t2 33v418q0 15 -1 25t-6 15t-15 7t-28 2h-51v23q51 12 90.5 36.5t77.5 64.5h19v-589q0 -21 1.5 -33.5t9.5 -19.5t25 -10t49 -6v-21h-266v21z" glyph-name="one" horiz-adv-x="505" unicode="1"/>
<glyph d="M53 13q0 33 11.5 62.5t30 58.5t42.5 59t50 65l82 110q35 48 54 85.5t19 71.5q0 42 -27 69t-65 27q-52 0 -94 -36.5t-87 -113.5l-17 7q48 103 106 152.5t133 49.5q67 0 106.5 -38.5t39.5 -96.5q0 -27 -8.5 -51t-24.5 -46.5t-37.5 -46t-46.5 -50.5l-119 -127 q-35 -37 -60.5 -72t-41.5 -73h251q32 0 48.5 14t31.5 51h20l-68 -197h-18v10q0 16 -3 25t-11 13t-21 4.5t-34 0.5h-242v13z" glyph-name="two" horiz-adv-x="505" unicode="2"/>
<glyph d="M183 326q62 67 97 114t35 92q0 39 -23.5 63t-64.5 24q-32 0 -64 -19t-69 -55l-15 12q53 61 98 92.5t95 31.5q51 0 81.5 -29t30.5 -76q0 -48 -28 -91t-84 -88q80 -7 125.5 -54t45.5 -124q0 -45 -17 -86.5t-47.5 -73.5t-72.5 -51t-91 -19q-39 0 -71 9t-54.5 23t-35 32 t-12.5 36q0 16 11.5 26.5t26.5 10.5q22 0 33 -14.5t23 -39.5q14 -31 36 -46t55 -15q28 0 52.5 13t43 36.5t29.5 56t11 70.5q0 139 -173 139h-7z" glyph-name="three" horiz-adv-x="505" unicode="3"/>
<glyph d="M302 200h-273v44l309 443h48v-422h98v-65h-98v-200h-84v200zM304 265v329l-229 -329h229z" glyph-name="four" horiz-adv-x="505" unicode="4"/>
<glyph d="M138 667h207q24 0 36 5t19 28h20l-43 -110h-221l-12 -141h21q135 0 204.5 -60.5t69.5 -166.5q0 -50 -16.5 -92.5t-46.5 -73.5t-72.5 -49t-94.5 -18q-35 0 -65 8t-52.5 21t-35 28.5t-12.5 30.5q0 16 11.5 25.5t27.5 9.5q26 0 44 -32q19 -32 40 -48.5t61 -16.5 q31 0 56.5 12t44 34t29 52.5t10.5 68.5q0 90 -57 137.5t-166 47.5h-16t-16 -1z" glyph-name="five" horiz-adv-x="505" unicode="5"/>
<glyph d="M393 663q-51 -13 -94.5 -43.5t-75.5 -73t-51.5 -95.5t-21.5 -111q29 32 60.5 48t70.5 16q41 0 76 -15t60.5 -41t40 -63t14.5 -80q0 -48 -17 -88t-45.5 -69t-66 -45t-77.5 -16q-45 0 -84 20.5t-68.5 58t-46.5 90t-17 117.5q0 75 23.5 142t67.5 120.5t106 91t140 54.5z M136 198q0 -88 32.5 -137.5t85.5 -49.5q27 0 51.5 13t42.5 38t28.5 60t10.5 80q0 38 -10 69t-28 53t-42.5 34t-53.5 12q-55 0 -86 -43.5t-31 -128.5z" glyph-name="six" horiz-adv-x="505" unicode="6"/>
<glyph d="M169 590q-17 0 -27.5 -1t-17 -5t-11.5 -12.5t-10 -23.5l-10 -31h-23l57 185h18q-1 -5 -1.5 -8.5t-0.5 -5.5q0 -15 11.5 -18t32.5 -3h268v-25l-202 -568q-10 -28 -16 -48t-13 -33.5t-16 -20t-24 -6.5q-18 0 -28 9.5t-10 26.5q0 19 19.5 64t54 118t82 174t104.5 232h-237z " glyph-name="seven" horiz-adv-x="505" unicode="7"/>
<glyph d="M218 337q-48 -34 -73 -79t-25 -96q0 -33 10.5 -60.5t29.5 -47.5t44 -31t55 -11q60 0 97 41.5t37 116.5q0 26 -8.5 45.5t-24.5 35.5t-38 30t-50 28zM356 360q105 -57 105 -165q0 -44 -15.5 -82t-43.5 -65.5t-65.5 -43.5t-82.5 -16q-44 0 -81 14t-63.5 38t-41.5 55.5 t-15 66.5q0 62 34.5 107t106.5 79q-120 60 -120 162q0 36 14 67t40 54t63 36t83 13q39 0 71 -11.5t55 -30.5t35.5 -44t12.5 -52q0 -28 -8 -49.5t-25 -40t-43 -35t-61 -32.5zM292 394q45 35 67 66.5t22 76.5q0 57 -32.5 89.5t-86.5 32.5q-56 0 -90 -32t-34 -79 q0 -50 38.5 -83t115.5 -71z" glyph-name="eight" horiz-adv-x="505" unicode="8"/>
<glyph d="M111 3q51 13 94.5 43.5t75.5 73t51.5 95.5t21.5 111q-29 -32 -60.5 -47.5t-70.5 -15.5q-41 0 -76 14.5t-60.5 40t-40.5 61.5t-15 80q0 48 17 88.5t45.5 70t67 46t82.5 16.5q46 0 85 -20t67 -57.5t43.5 -90t15.5 -118.5q0 -76 -23.5 -143t-67.5 -120.5t-106.5 -91 t-140.5 -54.5zM248 297q58 0 90 45t32 133q0 87 -31.5 132.5t-91.5 45.5q-27 0 -51 -13t-42 -37.5t-28 -59.5t-10 -79q0 -38 10.5 -69t28.5 -52.5t42 -33.5t51 -12z" glyph-name="nine" horiz-adv-x="505" unicode="9"/>
<glyph d="M78 381q0 26 16.5 42.5t42.5 16.5q25 0 42.5 -17t17.5 -42q0 -24 -18 -41.5t-42 -17.5q-25 0 -42 17.5t-17 41.5zM78 53q0 26 16.5 42.5t42.5 16.5q25 0 42.5 -17t17.5 -42q0 -24 -18 -41.5t-42 -17.5q-25 0 -42 17.5t-17 41.5z" glyph-name="colon" horiz-adv-x="275" unicode=":"/>
<glyph d="M75 381q0 26 17 42.5t43 16.5q25 0 42 -17t17 -42q0 -24 -17.5 -41.5t-41.5 -17.5q-25 0 -42.5 17.5t-17.5 41.5zM91 -134q36 32 55 57.5t19 48.5q0 9 -3 14t-8.5 8t-13.5 5.5t-18 6.5q-50 18 -50 57q0 22 15 35.5t39 13.5q34 0 57.5 -28.5t23.5 -74.5q0 -86 -101 -160z " glyph-name="semicolon" horiz-adv-x="275" unicode=";"/>
<glyph d="M75 381q0 26 17 42.5t43 16.5q25 0 42 -17t17 -42q0 -24 -17.5 -41.5t-41.5 -17.5q-25 0 -42.5 17.5t-17.5 41.5zM91 -134q36 32 55 57.5t19 48.5q0 9 -3 14t-8.5 8t-13.5 5.5t-18 6.5q-50 18 -50 57q0 22 15 35.5t39 13.5q34 0 57.5 -28.5t23.5 -74.5q0 -86 -101 -160z " glyph-name="semicolon" horiz-adv-x="275" unicode=";"/>
<glyph d="M704 497l-488 -199l488 -198v-63l-575 236v50l575 236v-62z" glyph-name="less" horiz-adv-x="833" unicode="&lt;"/>
<glyph d="M709 233v-57h-585v57h585zM709 420v-57h-585v57h585z" glyph-name="equal" horiz-adv-x="833" unicode="="/>
<glyph d="M704 323v-50l-575 -236v63l488 198l-488 199v62z" glyph-name="greater" horiz-adv-x="833" unicode="&gt;"/>
<glyph d="M126 416q48 0 81.5 5t55.5 16t32 29.5t10 46.5q0 47 -25.5 68t-77.5 29q-21 3 -39.5 5.5t-32 7t-21 13t-7.5 24.5q0 20 14 32.5t40 12.5q27 0 58 -16t57.5 -43t43.5 -63.5t17 -78.5q0 -84 -42.5 -122t-135.5 -41l-5 -155h-23v230zM77 47q0 25 16.5 42t42.5 17 q25 0 42 -17t17 -42q0 -23 -18 -41t-41 -18q-24 0 -41.5 17.5t-17.5 41.5z" glyph-name="question" horiz-adv-x="384" unicode="?"/>
<glyph d="M536 471q-28 0 -49.5 -16t-43.5 -48q-19 -28 -33.5 -58t-24 -59.5t-14.5 -57t-5 -49.5q0 -47 20.5 -72.5t52.5 -25.5q64 0 118 87q30 49 45.5 101.5t15.5 93.5q0 47 -23.5 75.5t-58.5 28.5zM842 -29q-146 -108 -320 -108q-184 0 -301 90q-74 56 -112 134t-38 175 q0 100 41.5 186t122.5 153q129 108 310 108q85 0 153.5 -24t117 -67.5t74.5 -105.5t26 -138q0 -78 -28.5 -145.5t-79.5 -114.5q-29 -27 -61.5 -40t-64.5 -13q-95 0 -101 103q-60 -103 -151 -103q-61 0 -98 44.5t-37 119.5q0 52 23 104.5t68 95.5q33 32 72 49t74 17 q87 0 108 -95l26 88h70l-83 -298q-3 -11 -6 -23.5t-3 -29.5q0 -23 12.5 -36.5t33.5 -13.5q14 0 36 7.5t44 24.5q59 44 91 112t32 155q0 135 -99 222q-44 38 -105 59.5t-131 21.5q-183 0 -301 -114q-129 -124 -129 -324q0 -85 27.5 -148t88.5 -115q113 -96 284 -96 q160 0 299 101z" glyph-name="at" horiz-adv-x="986" unicode="@"/>
<glyph d="M-29 24l34 6q12 2 21.5 12.5t16.5 24.5t13 30.5t11 30.5l172 458q1 2 2 8.5t1 8.5q0 8 -2.5 12t-3.5 6l-9 15q32 24 49.5 44t25.5 33h9l244 -635q11 -29 26 -42.5t48 -11.5v-24h-262v24l31 4q21 3 35 8t14 23q0 5 -1 14t-6 20l-61 167h-235l-51 -139q-2 -4 -4 -11.5 t-4.5 -15.5t-4 -16t-1.5 -12q0 -12 6 -19.5t14.5 -11.5t18.5 -6t18 -3l21 -3v-23h-186v24zM368 289l-111 284l-103 -284h214z" glyph-name="A" horiz-adv-x="604" unicode="A"/>
<glyph d="M219 86q0 -32 15 -48.5t62 -16.5q57 0 91 17t53 42.5t25 54.5t6 54q0 52 -17 83t-44 47.5t-61 21t-68 4.5h-62v-259zM241 367q16 0 48 2.5t64.5 17t57 44.5t24.5 84q0 57 -24 89.5t-58 48t-71 18.5t-63 1v-305h22zM44 24h6q18 0 30.5 0.5t20.5 7t12 21.5t4 44v505 q0 24 -3 38t-10.5 20.5t-20 8t-32.5 1.5h-7v24l201 3q23 0 53 -1t61.5 -6t62 -16t54.5 -31t39 -50t15 -73q0 -31 -10 -55t-26 -42t-37 -31t-42 -20q36 -4 66.5 -18.5t52 -37t34 -51.5t12.5 -62q0 -98 -73.5 -152.5t-240.5 -54.5q-26 0 -53 1t-53 1h-25l-91 2v24z" glyph-name="B" horiz-adv-x="617" unicode="B"/>
<glyph d="M654 244v-228h-20l-18 37q-4 7 -9 7q-8 0 -19 -7t-26 -15q-46 -26 -89 -38t-92 -12q-19 0 -43 2.5t-51 10.5t-57 22.5t-60 38.5q-42 34 -67.5 72t-38.5 76.5t-17 74t-4 63.5q0 19 2.5 45t10 55.5t22 61.5t38.5 64q19 26 46.5 50t61 42t74 29t87.5 11q34 0 60 -4.5 t47.5 -12t39.5 -16.5t35 -17t24.5 -11.5t15.5 -3.5t13.5 4t9 9.5t5 11.5l2.5 10h18v-232h-21q-3 32 -13.5 67t-30.5 66q-12 19 -29 38t-39.5 34t-51.5 24.5t-65 9.5q-15 0 -41.5 -4t-57 -19.5t-61.5 -45.5t-56 -82q-22 -45 -30.5 -91t-8.5 -99q0 -41 7 -87t29 -92 q19 -40 43.5 -68t52.5 -46t57.5 -26.5t57.5 -8.5q16 0 38.5 3t48 13t51.5 29.5t49 53.5q19 28 32 62t19 69h19z" glyph-name="C" horiz-adv-x="712" unicode="C"/>
<glyph d="M230 111q0 -34 7.5 -53t20.5 -28.5t31 -11.5t39 -2q57 0 103 8.5t89 39.5q51 37 86 106t35 176q0 59 -11.5 105t-29 80.5t-37.5 57.5t-37 37q-42 32 -91.5 42t-108.5 10q-36 0 -55.5 -6.5t-28.5 -18t-10.5 -28.5t-1.5 -38v-476zM55 24q28 -3 43 4t22 18t7.5 25t0.5 25 v513q0 12 -1.5 23.5t-9 20t-22 13.5t-40.5 4v24h94h14h18.5t29 0.5t44.5 1.5q24 0 40.5 0.5t29.5 1t24.5 1t25.5 0.5q48 0 104 -9.5t108 -38.5q28 -16 57 -40.5t52.5 -61t38.5 -85.5t15 -113q0 -54 -11 -99.5t-30 -82.5t-44.5 -64.5t-53.5 -46.5q-18 -12 -42.5 -23t-59 -20 t-80 -14.5t-104.5 -5.5q-8 0 -24 0.5t-33.5 1t-34.5 1t-28 0.5q-11 1 -21 1.5t-21 0.5h-45h-63v24z" glyph-name="D" horiz-adv-x="789" unicode="D"/>
<glyph d="M55 23q5 0 14 0.5t18.5 2t18 4t12.5 7.5q8 8 9 22t1 30v513q0 20 -1.5 33t-7.5 21q-7 8 -20.5 11t-27.5 3h-16v24h502l50 -159l-21 -8q-5 9 -15 25t-23 33t-28.5 33.5t-30.5 26.5q-32 21 -70 23.5t-87 2.5h-102v-305h52h27.5t31.5 2t31 6.5t27 13.5q23 17 34.5 48 t13.5 57h17v-278h-17q-1 12 -4.5 26.5t-9.5 29.5t-14.5 28t-19.5 21q-14 11 -40.5 16.5t-76.5 5.5h-52v-244q0 -16 2.5 -33t13.5 -28q15 -14 66 -14h61q32 0 64.5 4.5t61.5 21.5q15 9 31 24.5t31 34.5t28.5 40t23.5 39l19 -6l-37 -181h-540v23z" glyph-name="E" horiz-adv-x="646" unicode="E"/>
<glyph d="M55 23q27 -2 42 2t21.5 12.5t8 21.5t1.5 30v513q0 24 -3 38t-10.5 20.5t-20 8t-32.5 1.5h-7v24h502l50 -159l-21 -8q-6 10 -15.5 25.5t-22.5 32t-27.5 32t-30.5 25.5q-37 23 -81 26t-93 3h-86v-305h52q44 0 73.5 5t46.5 19q11 9 19.5 23t14 29.5t8.5 31t3 28.5h17v-301 h-17q0 33 -12.5 66.5t-31.5 49.5q-20 17 -52.5 21t-68.5 4h-52v-258q0 -18 1 -30t7 -19t19 -9.5t38 -2.5h17v-23h-257v23z" glyph-name="F" horiz-adv-x="606" unicode="F"/>
<glyph d="M550 247q0 23 -3.5 35.5t-11 18t-19 6t-26.5 0.5h-22v24h258v-25h-7q-20 0 -33 -1t-20.5 -7.5t-10.5 -21.5t-3 -42v-157q-24 -15 -55.5 -30.5t-67 -28.5t-74.5 -21.5t-78 -8.5q-66 0 -117.5 22t-89.5 52q-42 34 -67.5 72t-38.5 76t-17 73.5t-4 62.5q0 25 3.5 57t14.5 67 t31.5 70.5t54.5 68.5q20 19 45.5 36.5t55.5 31t64.5 21.5t72.5 8q33 0 60 -5.5t49 -13t39 -16t31 -14.5q14 -7 24 -11.5t19 -4.5q25 0 30 35h16l8 -196h-22q-9 55 -33 93.5t-56 63t-69.5 35.5t-73.5 11q-24 0 -53 -6.5t-58.5 -24t-57 -47t-49.5 -74.5q-20 -42 -29.5 -91 t-9.5 -97q0 -45 9 -92t26 -87q20 -45 46 -74.5t54 -46.5t56 -23.5t52 -6.5q34 0 63 12t50 33.5t32.5 50.5t11.5 63v75z" glyph-name="G" horiz-adv-x="735" unicode="G"/>
<glyph d="M313 694v-23h-20q-17 0 -28.5 -0.5t-19 -6t-11 -18t-3.5 -35.5v-241h359v241q0 23 -3.5 35.5t-11 18t-19.5 6t-28 0.5h-20v23h257v-24h-9q-38 0 -51 -9t-13 -38v-551q0 -12 2 -21t9 -15t20 -9t35 -3h8v-24h-258v23h19q17 0 29 0.5t19.5 6t11 18t3.5 36.5v259h-359v-259 q0 -24 3.5 -36.5t11 -18t19.5 -6t29 -0.5h19v-23h-258v24h8q22 0 35 3t20 9t9 15t2 21v551q0 29 -13 38t-51 9h-9v24h257z" glyph-name="H" horiz-adv-x="820" unicode="H"/>
<glyph d="M322 671h-20q-17 0 -28.5 -0.5t-19 -6t-11 -18t-3.5 -35.5v-527q0 -18 1 -30t7 -19t19 -9.5t38 -2.5h17v-23h-267v23h14q28 0 42 4t20 12t6 19v26v527v26.5t-5.5 19t-18.5 11t-39 3.5h-19v23h267v-23z" glyph-name="I" horiz-adv-x="377" unicode="I"/>
<glyph d="M146 598q0 28 -4 43t-12 21.5t-20.5 7t-30.5 0.5h-13v24h264v-24h-19h-23.5t-18 -4.5t-11.5 -17t-4 -37.5v-466q0 -51 -4 -97t-23 -91q-14 -34 -33.5 -57t-41 -37.5t-44.5 -20.5t-45 -6q-40 0 -60 18t-20 44q0 22 12.5 37t35.5 15q16 0 32.5 -11.5t30.5 -43.5 q5 -11 10 -20t16 -9q9 0 14.5 6.5t8 16.5t3 21t0.5 20v668z" glyph-name="J" horiz-adv-x="373" unicode="J"/>
<glyph d="M319 671q-7 1 -18.5 1t-23 -1t-21.5 -4t-14 -7q-8 -8 -9.5 -23t-1.5 -26v-270l209 225q20 22 32 39.5t12 31.5q0 11 -6.5 17.5t-16.5 10.5t-23.5 5t-26.5 1v23h236v-23q-23 -1 -42.5 -7t-40 -19.5t-44 -36t-54.5 -55.5l-134 -142l261 -340q19 -25 37.5 -36t53.5 -12v-23 h-159l-264 334l-30 -30v-220q0 -24 3.5 -36.5t11 -18t19 -6t28.5 -0.5h26v-23h-264v23q14 -1 34.5 2.5t28.5 11.5t9 22t1 30v517q0 13 -1 28t-9 23q-4 4 -11.5 6.5t-16.5 4.5t-18.5 2.5t-16.5 0.5v23h264v-23z" glyph-name="K" horiz-adv-x="654" unicode="K"/>
<glyph d="M55 24h7q20 0 32.5 1.5t20 8t10.5 20.5t3 39v509q0 42 -9 54q-8 10 -25.5 12t-31.5 2h-7v24h264v-23q-17 1 -41 -3t-34 -13q-11 -11 -12.5 -31t-1.5 -37v-489q0 -14 1.5 -32t14.5 -29q8 -7 23.5 -10.5t47.5 -3.5h66q29 0 67 5t74 29q17 11 35 30.5t34.5 42.5t31 47.5 t25.5 45.5h22l-56 -223h-561v24z" glyph-name="L" horiz-adv-x="670" unicode="L"/>
<glyph d="M145 137q0 -35 5 -57.5t14.5 -35.5t23 -18t30.5 -5h21v-21h-210v21h20q15 0 27.5 4.5t22 17.5t15 35t5.5 58v497q-5 19 -21.5 29t-60.5 12v20h171l262 -560l240 560h161v-24h-12q-22 0 -34.5 -3t-18.5 -11t-7.5 -22t-1.5 -36v-515v-22t6 -19.5t21.5 -14t46.5 -6.5v-21 h-258v21q51 -2 66.5 12.5t15.5 50.5v516l-253 -600h-21l-276 591v-454z" glyph-name="M" horiz-adv-x="921" unicode="M"/>
<glyph d="M75 656q-5 3 -17 9t-33 8v21h156l484 -539v423q0 30 -5 48.5t-14.5 29t-22.5 14t-29 3.5h-21v21h211v-21h-20q-16 0 -29 -4t-22 -14.5t-14 -29t-5 -47.5v-586h-20l-526 599v-458q0 -64 19 -88t52 -24h21v-21h-211v21h20q17 0 30 4.5t22 17t13.5 34.5t4.5 56v489z" glyph-name="N" horiz-adv-x="809" unicode="N"/>
<glyph d="M722 345q0 -79 -25 -144.5t-69.5 -113t-107 -73.5t-137.5 -26q-77 0 -140 28.5t-107.5 77t-68.5 114.5t-24 141q0 78 24.5 143.5t69.5 113t107 74t137 26.5q74 0 136.5 -26t108 -73.5t71 -114t25.5 -147.5zM617 346q0 87 -20 151t-52.5 105.5t-74 61.5t-85.5 20 q-45 0 -87.5 -21t-75.5 -63t-53 -106t-20 -151q0 -85 20 -147t53 -103t75 -61t85 -20q45 0 87 20t75 61.5t53 104t20 148.5z" glyph-name="O" horiz-adv-x="764" unicode="O"/>
<glyph d="M230 84q0 -14 3 -26.5t12 -21t26.5 -12.5t46.5 -1v-23h-263v24h7q20 0 32.5 1.5t20 8t10.5 20.5t3 39v530q0 18 -5.5 27.5t-14 14t-18.5 5t-18 0.5h-17v24q40 -1 71 -1t55.5 0.5t46 1t44.5 0.5q63 0 111 -6t86 -22q58 -25 83 -67t25 -102t-24 -103.5t-81 -69.5 q-22 -10 -48 -16t-51.5 -9t-49.5 -4t-43 -1h-14t-9.5 0.5t-10.5 0.5h-16v-212zM230 322q8 -1 22 -1.5t30 -0.5q21 0 45 2.5t47 10t42.5 21.5t33.5 38q12 21 17 49.5t5 54.5t-5 54t-16 48q-12 23 -29 37.5t-36.5 23t-41 11.5t-42.5 3q-26 0 -40 -6t-21.5 -16t-9 -22.5 t-1.5 -25.5v-281z" glyph-name="P" horiz-adv-x="606" unicode="P"/>
<glyph d="M617 346q0 87 -20 151t-52.5 105.5t-74 61.5t-85.5 20t-86.5 -20.5t-75.5 -63t-53.5 -107.5t-20.5 -153q0 -83 20 -145t52.5 -102.5t74.5 -60.5t86 -20q45 0 87 20t75 61.5t53 104t20 148.5zM663 -7q-5 -30 -17.5 -60t-34.5 -54.5t-52.5 -40t-71.5 -15.5q-35 0 -64.5 11 t-64.5 28l-88 42q-4 2 -5.5 3.5t-12.5 1.5q-10 0 -20.5 -6t-12.5 -26q0 -6 -0.5 -13.5t-3 -15t-8 -12.5t-15.5 -5t-19.5 8.5t-9.5 25.5q0 15 6.5 26t17 20t24.5 15.5t28 12.5l112 49q-70 7 -127 37t-97 77t-62 109t-22 135q0 74 23.5 139.5t67.5 114.5t106.5 77.5 t141.5 28.5q75 0 137.5 -26t107.5 -73.5t70 -114t25 -147.5q0 -75 -23 -139t-65 -111t-102 -75.5t-135 -32.5q-42 -15 -69 -26.5t-53 -23.5l3 -6q9 5 25 10t40 5q20 0 40 -4t36 -8l53 -12q6 -2 23.5 -5t31.5 -3q46 0 73.5 24.5t41.5 54.5h21z" glyph-name="Q" horiz-adv-x="764" unicode="Q"/>
<glyph d="M216 337q26 -2 37 -2h15q25 0 59.5 4.5t61.5 21.5q21 13 34.5 30t21 36.5t10 40t2.5 40.5q0 19 -3 39t-11.5 39t-23 36t-37.5 30q-26 14 -51.5 17.5t-45.5 3.5q-25 0 -39 -6t-20.5 -16t-8 -21.5t-1.5 -23.5v-269zM463 83q-44 84 -81.5 131.5t-68 71t-55 28.5t-42.5 2 v-232q0 -12 1.5 -23.5t9 -19.5t21.5 -13t40 -5h15v-23h-263v24h7q18 0 30.5 0.5t20.5 7t12 21.5t4 44v501q0 27 -3 42t-10.5 21.5t-20.5 7.5t-33 1h-7v24l190 1q75 0 136.5 -7t105 -27.5t67.5 -58.5t24 -99q0 -32 -10 -61.5t-29.5 -53t-48.5 -40t-67 -23.5q22 -21 40 -42 t34 -43.5t30.5 -47.5t30.5 -54l31 -56q4 -8 11.5 -19t19.5 -21t29 -16t41 -4v-22h-168z" glyph-name="R" horiz-adv-x="664" unicode="R"/>
<glyph d="M60 2h-13v214h22q2 -28 9.5 -57.5t22.5 -55.5t35 -43t41 -27t42.5 -14t40.5 -4q32 0 60 11t48 30q18 17 31 43.5t13 58.5q0 35 -15 57.5t-37.5 37t-48 23.5t-46.5 17l-34 13q-30 12 -59.5 27.5t-52.5 38t-37.5 54.5t-14.5 76q0 43 15.5 80.5t42.5 65t65 43t83 15.5 q38 0 66 -9t48 -19q21 -11 33 -19t18 -8q7 0 15.5 7t13.5 13h14v-204h-20q-5 29 -14.5 63.5t-22.5 58.5q-17 32 -37.5 50.5t-40 27.5t-36.5 11.5t-26 2.5q-29 0 -53 -10.5t-42 -29.5t-28 -44t-10 -53q0 -36 12.5 -60t33 -40.5t47 -28.5t55.5 -22q38 -14 74 -29.5t63.5 -38 t44.5 -54.5t17 -79t-17 -84.5t-47.5 -63.5t-72 -40.5t-90.5 -14.5q-53 0 -98.5 14.5t-80.5 34.5z" glyph-name="S" horiz-adv-x="544" unicode="S"/>
<glyph d="M422 84q0 -24 5 -36.5t13.5 -18t19.5 -6t24 -0.5h19v-23h-263v23h19q13 0 24 0.5t19.5 6t13.5 18t5 36.5v586h-26q-9 0 -25 -0.5t-33.5 -1t-34.5 -1t-28 -1.5l-31 -2q-22 -2 -47 -32t-67 -94l-17 -26l-12 9l39 189q35 -11 65.5 -13.5t68.5 -2.5h397q38 0 68.5 2.5 t65.5 13.5l39 -189l-12 -9l-17 26q-42 64 -67 94t-47 32l-31 2q-11 1 -28 1.5t-34.5 1t-33.5 1t-25 0.5h-26v-586z" glyph-name="T" horiz-adv-x="743" unicode="T"/>
<glyph d="M122 606q0 13 -0.5 25.5t-7 21.5t-21.5 14t-44 4v23h257v-23h-25q-14 0 -25 -0.5t-18 -5.5t-10.5 -17.5t-3.5 -36.5v-415q0 -41 14 -74.5t38.5 -57.5t59 -37t75.5 -13q50 0 84.5 15t57 39t34.5 53t18 58t7 54t1 40v305q0 30 -4.5 48t-13.5 28t-22.5 13.5t-30.5 3.5h-21 v23h204v-23h-18q-15 0 -27 -3.5t-20.5 -13t-13 -28t-4.5 -48.5v-316q0 -17 -1.5 -44t-9 -57.5t-23 -61.5t-44 -55.5t-71.5 -40t-106 -15.5q-51 0 -89.5 8.5t-67 23t-47.5 34t-31 42.5q-21 40 -25.5 91.5t-4.5 109.5v309z" glyph-name="U" horiz-adv-x="755" unicode="U"/>
<glyph d="M40 632q-8 19 -18.5 27.5t-22.5 9.5l-30 2v23h271v-23l-31 -2q-19 -1 -30 -4.5t-17 -9t-7.5 -11.5t-1.5 -12t1.5 -13t6.5 -21l182 -460l164 446q2 6 5.5 18t3.5 23q0 15 -6.5 23.5t-15.5 13t-18 6t-14 1.5l-31 2v23h222v-23l-22 -4q-14 -3 -25 -5.5t-22 -11t-21.5 -26 t-22.5 -48.5l-222 -590h-20z" glyph-name="V" horiz-adv-x="601" unicode="V"/>
<glyph d="M35 632q-8 20 -19 27.5t-22 8.5l-26 3v23h266v-24l-30 -2q-11 -1 -21 -2t-17.5 -5t-12.5 -10.5t-5 -18.5t2.5 -19t4.5 -12l166 -460l123 362l-50 129q-5 12 -14.5 23t-30.5 13l-34 2v24h278v-24l-36 -2q-5 0 -14 -1.5t-17 -5t-14 -11t-6 -19.5q0 -5 2 -13.5t4 -13.5 l149 -463l116 409q2 9 7.5 28.5t5.5 38.5t-8.5 30t-21 16t-26 6t-22.5 1v24h214v-23l-27 -5q-19 -3 -31.5 -11t-21.5 -19.5t-15 -26.5t-11 -33l-181 -590h-18l-163 473l-160 -473h-20z" glyph-name="W" horiz-adv-x="866" unicode="W"/>
<glyph d="M-23 23q26 0 45.5 7.5t34.5 19t27 25t22 27.5l176 229l-197 285q-7 10 -15.5 20t-21 18t-29.5 13t-42 4v23h299v-23l-43 -3q-26 -2 -32 -10.5t-6 -13.5t1.5 -10.5t7 -15t15 -24.5t25.5 -37l107 -155l76 93q25 31 41.5 53.5t26.5 38t13.5 25.5t3.5 16q0 13 -7 21.5 t-18.5 13.5t-25 6.5t-26.5 1.5v23h240v-23q-26 1 -45 -5.5t-34 -17.5t-26.5 -24t-21.5 -26l-180 -221l187 -277q13 -19 24.5 -34t25 -24.5t30 -14.5t40.5 -4v-23h-296v23q13 0 28 0.5t27 3.5t20 9.5t8 17.5q0 10 -7 22t-18 27l-138 204l-80 -107q-31 -41 -49 -67.5 t-27.5 -42.5t-12 -23.5t-2.5 -11.5q0 -9 4.5 -14.5t10.5 -8.5t13 -4t13 -1l47 -4v-23h-239v23z" glyph-name="X" horiz-adv-x="654" unicode="X"/>
<glyph d="M314 94q0 -20 1.5 -34t8.5 -23t22 -12.5t42 -0.5v-24h-251v24h7q18 0 30.5 0.5t20.5 7t12 21.5t4 44v217l-177 308q-5 8 -11 17t-14.5 16t-20 11.5t-26.5 4.5v23h249v-23h-17.5t-23 -3t-20 -9.5t-8.5 -18.5q0 -8 3 -13.5t6 -10.5l151 -258l120 207q11 20 20 37t9 33 q0 6 -2 12.5t-8 12t-18 9.5t-32 5v20h177v-23q-34 -1 -54 -19.5t-44 -59.5l-156 -261v-237z" glyph-name="Y" horiz-adv-x="517" unicode="Y"/>
<glyph d="M468 670q-15 2 -30 3t-29 1h-112q-26 0 -51.5 -3.5t-54.5 -21.5q-26 -17 -51 -47.5t-61 -80.5l-22 -30l-18 7l67 196h494l-466 -671h96q60 0 102 1t69.5 4t44 8t26.5 13q14 11 48 52.5t82 120.5h18l-67 -222h-556z" glyph-name="Z" horiz-adv-x="640" unicode="Z"/>
<glyph d="M321 694v-25h-44q-21 0 -33 -2.5t-18 -9.5t-7.5 -18t-1.5 -28v-683q0 -17 1.5 -28.5t7.5 -18t18 -9.5t33 -3h44v-25h-182v850h182z" glyph-name="bracketleft" horiz-adv-x="405" unicode="["/>
<glyph d="M-7 706h56l245 -799h-57z" glyph-name="backslash" horiz-adv-x="277" unicode="\"/>
<glyph d="M266 -156h-182v25h44q21 0 33 3t18 9.5t7.5 18t1.5 28.5v683q0 17 -1.5 28t-7.5 18t-18 9.5t-33 2.5h-44v25h182v-850z" glyph-name="bracketright" horiz-adv-x="405" unicode="]"/>
<glyph d="M543 714l254 -276h-45l-253 213l-254 -213h-44l255 276h87z" glyph-name="asciicircum" horiz-adv-x="1000" unicode="^"/>
<glyph d="M500 -178v-58h-500v58h500z" glyph-name="underscore" unicode="_"/>
<glyph d="M303 503l-161 100q-10 6 -20 16.5t-10 24.5q0 12 9 23t26 11q14 0 25.5 -9t22.5 -20l141 -146h-33z" glyph-name="grave" unicode="`"/>
<glyph d="M414 70q-2 -38 -24.5 -58.5t-54.5 -20.5q-28 0 -47.5 17.5t-21.5 50.5q-9 -9 -22.5 -21t-31 -23t-38 -18.5t-42.5 -7.5q-42 0 -68 24t-26 65q0 24 8 42t20 32t26.5 24t28.5 18q34 20 76.5 37.5t74.5 28.5v100q0 9 -1.5 19.5t-7.5 19.5t-17 15t-30 6q-14 0 -29 -3t-28 -9 t-22.5 -16.5t-11.5 -25.5q-2 -9 -1 -23t-5 -31q-4 -11 -13 -20.5t-30 -9.5q-20 0 -29 10.5t-9 26.5q0 12 5 22t12 19t15 16t14 12q45 35 88.5 48.5t75.5 13.5q34 0 50 -8.5t21 -12.5q11 -10 17 -25t9 -31t3.5 -31t0.5 -25v-254q0 -11 5 -19t15 -8q11 0 18 10t8 24h19z M269 235q-7 -3 -21.5 -8.5t-32 -13.5t-36 -17.5t-34.5 -20.5q-14 -9 -26 -23.5t-12 -39.5q0 -30 23 -49t53 -19q13 0 26.5 4.5t24.5 10.5t20 13t15 12v151z" glyph-name="a" horiz-adv-x="429" unicode="a"/>
<glyph d="M159 389q23 21 47 32.5t44.5 17.5t36 7t21.5 1q34 0 67.5 -13t60 -40t42.5 -68.5t16 -97.5q0 -63 -19.5 -107.5t-51 -73.5t-71.5 -42.5t-80 -13.5t-62.5 5t-37 11t-25.5 11t-27 5q-7 0 -8.5 -3l-3.5 -7l-11 -21h-14v578q0 9 -0.5 19t-5 19.5t-14 18t-26.5 14.5v12 q45 14 71 25.5t44 22.5h7v-312zM159 147q0 -19 2.5 -42.5t13 -44t30.5 -34.5t56 -14q32 0 59.5 13.5t47.5 40t31.5 65.5t11.5 89t-12 86t-32.5 59.5t-46 34.5t-52.5 11q-29 0 -58 -14t-51 -40v-210z" glyph-name="b" horiz-adv-x="531" unicode="b"/>
<glyph d="M415 131q-24 -63 -72 -102.5t-109 -39.5q-44 0 -80 18t-62 49.5t-40.5 73t-14.5 88.5q0 58 18.5 101.5t48.5 72.5t67.5 43.5t75.5 14.5q36 0 65.5 -11t50.5 -27.5t32.5 -36t11.5 -37.5q0 -19 -12.5 -28t-25.5 -9q-14 0 -22 7.5t-13 18.5q-4 9 -6 18.5t-6 23.5 q-2 8 -5.5 18t-10.5 19t-19 15t-31 6q-26 0 -51 -11.5t-44.5 -34t-31.5 -56.5t-12 -78q0 -50 13.5 -87.5t35.5 -62.5t49.5 -37.5t54.5 -12.5q46 0 79.5 27t50.5 64z" glyph-name="c" horiz-adv-x="444" unicode="c"/>
<glyph d="M376 570q0 10 -0.5 20.5t-5.5 20.5t-16 17.5t-31 10.5v13q23 6 53.5 17.5t68.5 31.5h9v-618q0 -6 1 -12t5.5 -11t13.5 -9.5t26 -8.5v-11q-39 -12 -63 -19.5t-51 -18.5h-9v66q-22 -26 -45 -40.5t-43 -21t-35 -8t-20 -1.5q-34 0 -68 14.5t-61 43t-44 71.5t-17 99 q0 54 16 96.5t44.5 72.5t68 46t86.5 16q29 0 61 -6.5t56 -14.5v144zM376 246q0 58 -11.5 93t-29 54t-38 25t-39.5 6q-31 0 -55.5 -15t-41.5 -41t-26 -61.5t-9 -76.5q0 -48 13 -83.5t34 -59.5t47.5 -36t53.5 -12q24 0 51.5 10t50.5 36v161z" glyph-name="d" horiz-adv-x="544" unicode="d"/>
<glyph d="M118 297q-2 -16 -4.5 -38.5t-2.5 -35.5q0 -36 13 -67.5t35.5 -54.5t53.5 -36.5t68 -13.5q53 0 93 28t60 76l19 -6q-11 -38 -31.5 -68t-48 -51t-60.5 -32t-69 -11t-73 13.5t-67 41t-49 69.5t-19 100q0 51 15.5 94.5t44 75.5t69.5 50t92 18q39 0 72.5 -12.5t58 -32 t38.5 -43t14 -44.5q0 -12 -3.5 -16t-14.5 -4h-304zM302 323q3 0 9 0.5t11.5 3.5t9.5 9t4 17q0 32 -27 53t-65 21q-44 0 -77.5 -28t-44.5 -76h180z" glyph-name="e" horiz-adv-x="486" unicode="e"/>
<glyph d="M187 77q0 -22 2 -31t6 -14q8 -9 22.5 -11t27.5 -2h20v-19h-217v19h15q10 0 23 5t18 10t6.5 17.5t1.5 41.5v288h-72l11 41h61v42q0 53 12 96.5t35 75t55.5 48.5t74.5 17q47 0 76.5 -22t29.5 -57q0 -21 -12 -30.5t-29 -9.5q-19 0 -28.5 10.5t-16.5 23.5q-11 21 -22 35.5 t-35 14.5q-26 0 -39.5 -14.5t-19 -38.5t-6 -56t-0.5 -67v-68h109l-12 -41h-97v-304z" glyph-name="f" horiz-adv-x="323" unicode="f"/>
<glyph d="M300 44q20 0 49.5 -3.5t56.5 -15.5t46 -36t19 -66q0 -35 -13.5 -59t-35 -40t-49 -25.5t-55 -14t-52.5 -5.5t-43 -1q-62 0 -100.5 10t-60.5 25.5t-29.5 34t-7.5 36.5q0 20 8.5 37t21.5 31t29 24t32 16q-27 14 -41 35.5t-14 44.5q0 16 7 31.5t17.5 29t23.5 24.5t25 19 q-32 21 -48.5 52.5t-16.5 69.5q0 67 43.5 109t116.5 42q41 0 71.5 -12t52.5 -29q14 13 33.5 23t38.5 10q23 0 33 -12t10 -26t-9 -21t-19 -7q-11 0 -17 4.5t-11 8.5q-11 8 -17.5 10t-11.5 2q-15 0 -20 -4q12 -18 21 -41.5t9 -52.5q0 -34 -12.5 -61t-34 -46.5t-51.5 -30 t-65 -10.5q-9 0 -27.5 2t-51.5 10q-20 -10 -31 -26t-11 -35q0 -22 11 -34t30 -17.5t44 -7t52 -1.5zM230 427q-37 0 -62 -31t-25 -94t25 -93.5t62 -30.5q17 0 32.5 7t27.5 22t19 38.5t7 56.5q0 64 -25 94.5t-61 30.5zM214 -31q-14 0 -34 0.5t-47 11.5q-24 -14 -35.5 -36.5 t-11.5 -46.5q0 -32 14.5 -51.5t35.5 -29.5t46 -13t46 -3q57 0 94 8t58.5 21.5t30 30t8.5 33.5q0 26 -12.5 41t-30.5 22.5t-39 9.5t-39 2h-84z" glyph-name="g" horiz-adv-x="471" unicode="g"/>
<glyph d="M40 19q15 -2 28 3.5t19 13.5q5 6 6.5 18t1.5 39v477q0 23 -6.5 41.5t-39.5 29.5v12q45 14 71 25.5t44 22.5h6v-331q7 10 20 24t31 26.5t41 21t51 8.5q52 0 80 -23.5t41.5 -56t16 -67.5t2.5 -57v-177q0 -14 1 -24t6 -15q6 -7 22.5 -9.5t25.5 -1.5v-19h-182v19 q13 -2 26.5 2.5t18.5 12.5q3 4 5 14t2 33v168q0 34 -3.5 63t-13.5 49.5t-28.5 32t-49.5 11.5q-33 0 -63.5 -18t-49.5 -53v-257q0 -23 2 -32.5t6 -13.5q7 -8 22.5 -11t24.5 -1v-19h-185v19z" glyph-name="h" horiz-adv-x="539" unicode="h"/>
<glyph d="M185 649q0 -20 -15 -36t-37 -16t-37 15.5t-15 36.5q0 23 14.5 37.5t37.5 14.5q26 0 39 -17.5t13 -34.5zM178 77q0 -36 10 -48.5t45 -9.5v-19h-189v19q19 -1 30 3t16 13t6.5 23.5t1.5 34.5v225q0 23 -6.5 41.5t-39.5 29.5v12q38 11 66.5 24t48.5 24h11v-372z" glyph-name="i" horiz-adv-x="274" unicode="i"/>
<glyph d="M179 649q0 -20 -15.5 -36t-37.5 -16t-37 15.5t-15 36.5q0 23 14.5 37.5t37.5 14.5q21 0 37 -15t16 -37zM169 15q0 -65 -12.5 -109.5t-32.5 -72t-45.5 -39.5t-52.5 -12q-31 0 -52 14.5t-21 38.5q0 19 11 28t25 9q22 0 34.5 -13t20.5 -23q5 -7 10 -13.5t13 -6.5 q10 0 15.5 8t7.5 20t2 25.5v25.5v423q0 26 -8 43t-39 28v12q45 14 71 25.5t44 22.5h9v-434z" glyph-name="j" horiz-adv-x="251" unicode="j"/>
<glyph d="M39 19q9 -1 23 2t21 10t9 21t2 41v477q0 28 -8.5 44t-37.5 27v12q19 6 46.5 16.5t68.5 31.5h7v-453l144 110q14 10 18.5 18.5t4.5 13.5q0 13 -12 16t-24 5l-45 8v18h222v-18q-34 -8 -58.5 -18.5t-50.5 -30.5l-101 -79l167 -212q20 -26 42 -42.5t55 -17.5v-19h-226v19 l25 3q5 1 17 5t12 16q0 5 -2.5 9t-4.5 7l-143 190l-40 -31v-141q0 -23 2 -32.5t6 -13.5q6 -7 20.5 -10t25.5 -2v-19h-185v19z" glyph-name="k" horiz-adv-x="521" unicode="k"/>
<glyph d="M175 77q0 -23 2 -32.5t6 -13.5q6 -7 20.5 -10t25.5 -2v-19h-185v19q13 -1 27 3.5t20 12.5q5 6 6.5 19t1.5 39v477q0 28 -8.5 44t-37.5 27v12q40 12 69 25.5t46 22.5h7v-624z" glyph-name="l" horiz-adv-x="271" unicode="l"/>
<glyph d="M46 19q10 0 23.5 3t19.5 9q7 6 9 20t2 42v225q0 28 -8 44t-39 27v12q38 11 67 24t49 24h5v-79q21 29 42.5 45t40.5 24t34.5 9.5t24.5 1.5q8 0 25.5 -2t37.5 -11t38.5 -27t27.5 -51q9 15 22.5 31t31.5 29.5t40.5 22t49.5 8.5q24 0 44 -7t35 -18t26 -25t18 -27 q12 -23 14 -47.5t2 -51.5v-216q0 -7 1.5 -15t8.5 -14q7 -7 21 -9t23 -1v-19h-178v19q10 -2 23.5 2t19.5 12q3 5 5 15t2 38v183q0 36 -4 56t-9 31q-12 26 -32 37t-49 11q-21 0 -38 -7t-30.5 -18t-23.5 -25t-17 -27v-269q0 -7 1.5 -15t8.5 -14t21 -8.5t24 -1.5v-19h-180v19h4 q9 0 19 1.5t18 10.5q6 7 8 19.5t2 35.5v184q0 25 -3 47t-11 40q-12 26 -32 36.5t-49 10.5q-21 0 -37.5 -7t-30 -18t-23.5 -25t-17 -27v-250q0 -23 2 -32.5t6 -13.5q6 -7 20.5 -10t25.5 -2v-19h-182v19z" glyph-name="m" horiz-adv-x="812" unicode="m"/>
<glyph d="M44 19q11 0 26.5 3t20.5 9q5 5 6.5 15.5t1.5 34.5v237q0 23 -6.5 41.5t-39.5 29.5v12q42 13 69 25.5t45 22.5h9l-2 -79q21 28 42.5 44t40.5 24t34.5 10t24.5 2q43 0 73 -16.5t47 -57.5q11 -28 15.5 -64t4.5 -66v-190q0 -6 0.5 -14t7.5 -14t23 -7.5t25 -1.5v-19h-183v19 q8 0 23.5 2t21.5 8q5 5 6 12.5t1 14.5v214q0 22 -3 45t-11 41q-13 28 -33.5 38.5t-47.5 10.5q-40 0 -68 -21t-44 -50v-257q0 -35 9.5 -48.5t44.5 -9.5v-19h-184v19z" glyph-name="n" horiz-adv-x="544" unicode="n"/>
<glyph d="M35 219q0 52 15 94.5t42 72.5t64.5 46.5t83.5 16.5t84 -16.5t65 -46.5t42 -72.5t15 -94.5q0 -49 -14 -91.5t-41 -73.5t-65 -48.5t-86 -17.5q-46 0 -83.5 16.5t-64.5 47t-42 73t-15 94.5zM240 425q-20 0 -41.5 -9.5t-39.5 -33t-29.5 -63t-11.5 -100.5t11.5 -101 t29.5 -63.5t39.5 -33t41.5 -9.5q18 0 39.5 8.5t39.5 32t30.5 63.5t12.5 103q0 55 -10 94.5t-27 64t-39 36t-46 11.5z" glyph-name="o" horiz-adv-x="480" unicode="o"/>
<glyph d="M169 -138q0 -11 1 -22.5t7.5 -20.5t21.5 -14t44 -2v-18h-205v18q20 -1 31 2t16.5 9.5t6.5 15.5t1 21v467q0 28 -8 44t-39 27v12q38 11 66.5 24t48.5 24h8v-50q25 19 58.5 33t75.5 14q44 0 80.5 -15.5t62.5 -44t40.5 -68.5t14.5 -89q0 -51 -17.5 -95t-49 -76.5 t-74.5 -50.5t-94 -18q-20 0 -45.5 3.5t-51.5 13.5v-144zM169 205q0 -27 1.5 -60.5t11.5 -62.5t32.5 -48.5t63.5 -19.5q32 0 58.5 15t45.5 41t29.5 60t10.5 73q0 52 -14.5 91t-38 65t-52 38.5t-55.5 12.5q-17 0 -32 -4t-27 -10t-20.5 -12t-13.5 -10v-169z" glyph-name="p" horiz-adv-x="544" unicode="p"/>
<glyph d="M390 304q0 21 -1 43t-9.5 39.5t-27 29t-52.5 11.5q-42 0 -71.5 -17t-48.5 -45.5t-28 -66t-9 -79.5q0 -51 12.5 -87t32 -59t44.5 -34t51 -11q12 0 26 2.5t28.5 8.5t28 17t24.5 28v220zM466 -158q0 -20 17.5 -30.5t37.5 -8.5v-18h-205v18q28 -3 43.5 2t22 14t7.5 20.5 t1 22.5v182q-36 -27 -74 -39.5t-70 -12.5q-35 0 -69 13t-61 39.5t-44 67.5t-17 97q0 55 16 99t46 75t72.5 48t95.5 17q37 0 66 -6.5t39 -9.5q6 -2 14.5 -4.5t18.5 -2.5q12 0 18 6l15 16h10v-605z" glyph-name="q" horiz-adv-x="543" unicode="q"/>
<glyph d="M44 19q12 -1 25 3t19 11q8 8 9.5 22.5t1.5 37.5v225q0 26 -8 43t-39 28v12q44 15 69 26t46 22h7v-72q7 13 18.5 26t25 24t29 18t32.5 7q28 0 39.5 -16t11.5 -33q0 -18 -10.5 -27.5t-23.5 -9.5q-12 0 -19.5 2.5t-14 6t-13 6t-17.5 2.5q-23 0 -37 -14t-21 -29v-263 q0 -11 0.5 -24.5t10.5 -22.5q8 -8 26.5 -10t32.5 -1v-19h-200v19z" glyph-name="r" horiz-adv-x="336" unicode="r"/>
<glyph d="M50 145h19q5 -25 12.5 -49t19.5 -43t30.5 -30.5t45.5 -11.5q38 0 62.5 25t24.5 64q0 19 -7 34t-19 26t-27.5 20.5t-32.5 18.5q-23 12 -45 23.5t-39.5 26.5t-28 34.5t-10.5 47.5q0 22 8.5 43t26.5 37.5t44.5 27t62.5 10.5q21 0 52 -6t70 -28v-106h-21q-3 36 -22 68 q-20 32 -44 42.5t-42 10.5q-32 0 -53 -17.5t-21 -46.5q0 -32 19.5 -47t42.5 -28l31 -17q27 -14 46 -25t33 -22q18 -14 34 -36.5t16 -62.5q0 -34 -14 -60t-37.5 -43.5t-53.5 -26.5t-62 -9q-20 0 -51.5 5.5t-69.5 27.5v123z" glyph-name="s" horiz-adv-x="387" unicode="s"/>
<glyph d="M52 387v10q48 36 77 64.5t47 48.5h8v-73h147l-26 -50h-121v-255q0 -10 0.5 -26t6.5 -31t19.5 -25.5t38.5 -10.5q26 0 48 13.5t34 25.5l9 -11q-3 -5 -13 -18t-26.5 -26t-40 -23t-54.5 -10q-43 0 -62 17t-27 45q-8 25 -8.5 50t-0.5 51v234h-56z" glyph-name="t" horiz-adv-x="369" unicode="t"/>
<glyph d="M447 98q0 -21 2.5 -28.5t4.5 -9.5q5 -5 17 -8t22 -3v-12q-15 -5 -27.5 -9.5t-25 -9.5t-27 -11t-35.5 -14h-7v75q-20 -29 -41 -45t-40.5 -23.5t-35.5 -9.5t-26 -2q-29 0 -50 7.5t-35.5 19t-23.5 24t-14 23.5q-12 26 -14 56t-2 58v203q0 8 -1.5 16t-8.5 14t-19.5 8t-21.5 2 h-5v18h131v-250q0 -34 3 -62.5t12.5 -48.5t29 -31.5t52.5 -11.5q41 0 68.5 24t41.5 54v249q0 35 -8 46q-8 10 -20.5 11.5t-20.5 1.5h-5v18h130v-339z" glyph-name="u" horiz-adv-x="538" unicode="u"/>
<glyph d="M62 374q-10 26 -23.5 34t-39.5 9v20h203v-20h-11q-20 0 -36.5 -3t-16.5 -19q0 -4 3 -15t5 -16l101 -273l120 273q2 5 4 13t2 13q0 9 -5.5 14.5t-14 8.5t-19 3.5t-20.5 0.5v20h148v-20q-16 0 -27.5 -6.5t-20 -17t-15 -24t-12.5 -26.5l-159 -352h-22z" glyph-name="v" horiz-adv-x="457" unicode="v"/>
<glyph d="M66 365q-11 27 -24 40.5t-39 11.5v20h193v-20l-30 -2q-17 -2 -23 -8t-6 -12q0 -5 3 -15.5t5 -15.5l105 -271l91 235l-14 37q-3 7 -7.5 16.5t-11.5 17.5t-18 13t-26 5v20h185v-20l-23 -2q-3 0 -7.5 -1t-9 -3t-8 -6.5t-3.5 -11.5q0 -8 2.5 -16t4.5 -13l87 -265l101 265 q2 5 4 13.5t2 13.5q0 8 -4 12.5t-9 7t-10 3.5t-7 1l-24 2v20h141v-20q-28 -2 -45 -17q-10 -9 -14.5 -19.5t-8.5 -21.5l-145 -368h-20l-101 302l-120 -302h-21z" glyph-name="w" horiz-adv-x="692" unicode="w"/>
<glyph d="M11 19h3q21 0 36.5 5t28.5 15t25.5 25.5t27.5 35.5l83 112l-128 173q-8 11 -19.5 19.5t-31.5 11.5l-18 3v18h202v-18l-17 -2q-17 -2 -21 -6.5t-4 -9.5q0 -7 3 -13.5t5 -8.5l77 -109l71 102q2 3 5.5 10t3.5 17q0 14 -16 17t-32 3h-13v18h178v-18q-22 0 -37 -4.5t-26 -12 t-19 -17.5t-16 -21l-84 -111l122 -178q8 -11 18 -24t26 -21q19 -9 43 -11v-19h-233v19l33 2q4 0 10.5 1t12.5 3.5t10.5 7t4.5 12.5q0 7 -4.5 15t-15.5 24l-77 107l-73 -104q-14 -20 -19 -30t-5 -18q0 -14 15.5 -17t29.5 -3h14v-19h-179v19z" glyph-name="x" horiz-adv-x="473" unicode="x"/>
<glyph d="M-12 437h213v-18l-24 -2q-17 -2 -32 -5.5t-15 -20.5q0 -2 1.5 -6.5t6.5 -15.5l140 -263l84 251q2 6 3.5 14.5t1.5 15.5q0 12 -6 19t-16 10t-23 3.5t-27 -0.5v18h169v-18q-20 0 -33 -6t-20.5 -15t-12 -20t-7.5 -20l-164 -464q-8 -22 -15 -42t-17 -35t-23.5 -24t-34.5 -9 q-24 0 -33.5 15t-9.5 29q0 21 14 30t27 9q8 0 17 -2.5t17 -2.5q18 0 24.5 10.5t9.5 18.5l42 120l-193 354q-10 19 -23.5 36t-40.5 18v18z" glyph-name="y" horiz-adv-x="456" unicode="y"/>
<glyph d="M28 6l270 411h-95q-24 0 -44 -1t-34 -9q-9 -5 -19 -14t-19.5 -21t-17.5 -25.5t-13 -26.5l-21 4l33 113h332v-6l-269 -409h94q45 0 68 3t40 15q2 1 7 6t14 16.5t21.5 31.5t28.5 51l15 -7l-31 -138h-360v6z" glyph-name="z" horiz-adv-x="446" unicode="z"/>
<glyph d="M413 715q-37 0 -60.5 -7t-36.5 -22t-18 -39.5t-5 -60.5v-70q0 -48 -4.5 -83t-19.5 -59.5t-42.5 -39.5t-73.5 -24q46 -9 73.5 -24t42.5 -39.5t19.5 -59.5t4.5 -83v-70q0 -36 5 -60t18 -39t36.5 -22t60.5 -7v-25h-5q-54 0 -89.5 8.5t-57 28.5t-30 52t-8.5 80v104 q0 37 -6 63t-21.5 42.5t-42 25t-67.5 11.5v29q41 4 67.5 12.5t42 25t21.5 41.5t6 63v104q0 48 8.5 80t30 52t57 28.5t89.5 8.5h5v-25z" glyph-name="braceleft" unicode="{"/>
<glyph d="M281 764v-1000h-62v1000h62z" glyph-name="bar" unicode="|"/>
<glyph d="M92 740q54 0 89.5 -8.5t56.5 -28.5t30 -52t9 -80v-104q0 -38 6 -63t21.5 -41.5t42 -25t67.5 -12.5v-29q-41 -3 -67.5 -11.5t-42 -25t-21.5 -42.5t-6 -63v-104q0 -48 -9 -80t-30 -52t-56.5 -28.5t-89.5 -8.5h-5v25q37 0 60.5 7t36.5 22t18 39t5 60v70q0 48 4.5 83 t19.5 59.5t42.5 39.5t73.5 24q-46 9 -73.5 24t-42.5 39.5t-19.5 59.5t-4.5 83v70q0 36 -5 60.5t-18 39.5t-36.5 22t-60.5 7v25h5z" glyph-name="braceright" unicode="}"/>
<glyph d="M747 306q-98 -70 -189 -70q-42 0 -93 17q-52 17 -97.5 33.5t-92.5 16.5q-45 0 -89.5 -20t-98.5 -58v65q103 71 189 71q39 0 73.5 -10t68.5 -22q36 -13 69.5 -24t71.5 -11q45 0 90 19.5t98 56.5v-64z" glyph-name="asciitilde" horiz-adv-x="833" unicode="~"/>
<glyph d="M154 528l38 -434q1 -12 1.5 -20t0.5 -11q0 -35 -13.5 -55t-35.5 -20q-21 0 -34.5 20t-13.5 55q0 5 0.5 13t1.5 18l38 434h17zM205 647q0 -26 -16.5 -42.5t-42.5 -16.5q-25 0 -42.5 17t-17.5 42q0 24 18 41.5t42 17.5q25 0 42 -17.5t17 -41.5z" glyph-name="exclamdown" horiz-adv-x="292" unicode="¡"/>
<glyph d="M449 140q-48 -118 -157 -141v-127h-40v126q-42 5 -75.5 23.5t-57 48.5t-36.5 70t-13 87q0 45 13 84.5t37 70t57.5 50t74.5 24.5v118h40v-115q71 -9 110 -41.5t39 -71.5q0 -14 -11 -25.5t-27 -11.5t-24 8t-13 21t-8 28t-9 30q-15 37 -57 41v-381q7 -1 12 -1h8 q30 0 63.5 23t57.5 68zM252 431q-48 -18 -74.5 -64.5t-26.5 -111.5q0 -68 26 -117t75 -72v365z" glyph-name="cent" horiz-adv-x="505" unicode="¢"/>
<glyph d="M208 73q-16 32 -38.5 48.5t-45.5 16.5q-26 0 -43 -16.5t-17 -41.5q0 -26 19 -44t47 -18q23 0 41 13.5t37 41.5zM476 207q-17 -112 -49 -166.5t-92 -54.5q-27 0 -53 17t-53 50q-21 -33 -45 -48.5t-56 -15.5q-44 0 -70.5 28t-26.5 73q0 42 28 70t73 28q31 0 54 -13t50 -36 q4 11 6.5 20t2.5 18q0 30 -18 61t-53 68q-7 0 -13.5 0.5t-12.5 0.5q-25 0 -49.5 -2t-47.5 -5l12 51q11 -1 21 -1.5t20 -0.5h13t27 1q-36 41 -54 82.5t-18 78.5q0 36 14 67t38 53.5t57 35.5t71 13q36 0 65.5 -11t50 -27.5t32 -36t11.5 -37.5q0 -17 -10.5 -27.5t-25.5 -10.5 q-18 0 -27 14.5t-16 40.5q-11 39 -28.5 56.5t-52.5 17.5q-20 0 -38 -7.5t-32.5 -22t-23 -35t-8.5 -45.5q0 -27 9.5 -51t25 -47t35.5 -46.5t41 -51.5q27 1 60.5 3t74.5 5l-21 -57q-25 2 -47.5 3t-44.5 1q8 -22 11.5 -42t3.5 -41q0 -28 -7 -56t-21 -58q33 -41 76 -41t67 36 t43 108z" glyph-name="sterling" horiz-adv-x="505" unicode="£"/>
<glyph d="M178 592q29 22 59.5 33t65.5 11q69 0 127 -44l100 101l35 -36l-100 -100q42 -56 42 -125q0 -70 -42 -125l100 -100l-35 -36l-100 101q-55 -43 -127 -43q-70 0 -125 43l-101 -101l-35 36l101 100q-43 57 -43 125t43 125l-101 100l35 36zM304 586q-32 0 -60 -12t-48.5 -33 t-32.5 -49t-12 -59q0 -32 12 -60t32.5 -49t48.5 -33t60 -12t60 12t48.5 33t32.5 49t12 60q0 31 -12 59t-32.5 49t-48.5 33t-60 12z" glyph-name="currency" horiz-adv-x="606" unicode="¤"/>
<glyph d="M425 538q14 23 21.5 40t7.5 29q0 20 -14 28.5t-46 10.5v20h177v-22q-22 -2 -36.5 -9t-26 -18.5t-21 -27t-20.5 -34.5l-77 -127h155v-24h-170l-58 -96h228v-24h-228v-192q0 -21 1.5 -34.5t8.5 -21t22 -10t42 -2.5v-24h-233v24h7q24 0 37.5 3t19.5 10.5t7.5 21t1.5 33.5 v192h-216v24h206l-55 96h-151v24h136l-97 167q-14 24 -30 36t-42 13v22h241v-22q-35 -1 -52 -8t-17 -24q0 -8 8 -24l143 -255z" glyph-name="yen" horiz-adv-x="553" unicode="¥"/>
<glyph d="M281 199v-370h-62v370h62zM281 699v-370h-62v370h62z" glyph-name="brokenbar" unicode="¦"/>
<glyph d="M349 409q43 -36 64 -70t21 -71q0 -32 -15.5 -59t-44.5 -44q-35 -19 -70 -19q-4 0 -7.5 0.5t-7.5 0.5q97 -76 97 -147q0 -25 -11 -47.5t-31 -39t-47.5 -26.5t-61.5 -10q-32 0 -58 8.5t-44 22.5t-28 32t-10 37q0 26 14 40.5t37 14.5q18 0 31 -12t13 -30q0 -12 -5 -20.5 t-11 -15t-11 -11.5t-5 -10q0 -14 20 -24t56 -10q43 0 67.5 22t24.5 54q0 29 -22 58t-64 64l-88 76q-86 74 -86 139q0 26 10 48.5t27.5 39t42 26t53.5 9.5h10q-47 39 -71 72.5t-24 73.5q0 25 10 48t28.5 40t44.5 27t57 10q30 0 55 -8t42.5 -22t27 -32t9.5 -39 q0 -24 -14 -38.5t-37 -14.5q-20 0 -32 11t-12 27q0 10 5 18.5t11 15.5t11 13.5t5 12.5q0 11 -19.5 22.5t-49.5 11.5q-38 0 -60 -22t-22 -54t23 -61t65 -64zM122 340q0 -20 14.5 -42.5t40.5 -49.5q38 -38 66.5 -58.5t54.5 -20.5q35 0 57 21.5t22 52.5q0 26 -18 52t-53 58 q-32 29 -55 45.5t-49 16.5q-35 0 -57.5 -22t-22.5 -53z" glyph-name="section" unicode="§"/>
<glyph d="M336 628q16 0 32 -13t16 -36q0 -20 -13.5 -34.5t-34.5 -14.5q-20 0 -34.5 13.5t-14.5 35.5q0 23 17 36t32 13zM164 628q15 0 32 -13t17 -36q0 -22 -14.5 -35.5t-34.5 -13.5q-21 0 -34.5 14.5t-13.5 34.5q0 23 16 36t32 13z" glyph-name="dieresis" unicode="¨"/>
<glyph d="M564 535l1 -153h-20q-33 134 -137 134q-121 0 -121 -182q0 -186 130 -186q83 0 138 85l17 -12q-57 -102 -167 -102q-41 0 -77 16t-62.5 44t-42 65.5t-15.5 79.5q0 46 15.5 85.5t42 68t62 44.5t76.5 16q23 0 41 -5t31.5 -11.5t23 -11.5t16.5 -5q25 0 31 30h17zM412 636 q-60 0 -116 -23.5t-98 -66.5q-43 -44 -65.5 -99t-22.5 -116q0 -62 23 -117t66 -98q88 -88 212 -88q62 0 115.5 22t96.5 66q44 45 66.5 100t22.5 115t-23 117t-65 99t-97.5 65.5t-114.5 23.5zM412 675q67 0 130 -26t111 -74t74.5 -111.5t26.5 -132.5q0 -68 -25.5 -130 t-75.5 -113q-48 -49 -110 -74.5t-132 -25.5q-69 0 -130.5 25t-111.5 75q-50 49 -75.5 111t-25.5 132q0 69 25.5 131t74.5 112q48 49 111.5 75t132.5 26z" glyph-name="copyright" horiz-adv-x="822" unicode="©"/>
<glyph d="M308 437q-8 -55 -60 -55q-46 0 -51 47q-55 -49 -101 -49q-32 0 -51 17t-19 46q0 42 42.5 69t132.5 58v70q0 42 -42 42q-26 0 -47 -10.5t-21 -28.5q0 -29 -7.5 -43.5t-29.5 -14.5q-28 0 -28 26q0 13 14 29.5t36.5 30t50.5 23t56 9.5q27 0 42 -7t22.5 -20.5t9.5 -32.5 t2 -42v-169q0 -19 15 -19q17 0 19 24h15zM199 552q-63 -22 -92.5 -40.5t-29.5 -43.5q0 -22 16.5 -35.5t40.5 -13.5q17 0 32 7t33 21v105z" glyph-name="ordfeminine" horiz-adv-x="319" unicode="ª"/>
<glyph d="M387 96q-26 26 -60.5 59t-82.5 71q40 32 75.5 64t67.5 66l14 15q5 5 15 5q9 0 9 -10q0 -8 -14.5 -29.5t-40.5 -58.5l-38 -52l38 -52q26 -37 40.5 -58.5t14.5 -29.5q0 -11 -10 -11q-8 0 -14 6zM219 96q-26 26 -60.5 59t-82.5 71q40 32 75.5 64t67.5 66l14 15q5 5 15 5 q9 0 9 -10q0 -8 -14.5 -29.5t-40.5 -58.5l-38 -52l38 -52q26 -37 40.5 -58.5t14.5 -29.5q0 -11 -9 -11t-15 6z" glyph-name="guillemotleft" horiz-adv-x="506" unicode="«"/>
<glyph d="M709 419v-245h-56v188h-529v57h585z" glyph-name="logicalnot" horiz-adv-x="833" unicode="¬"/>
<glyph d="M412 675q68 0 131.5 -26.5t111.5 -74.5t73.5 -111.5t25.5 -132.5q0 -66 -26.5 -129.5t-77.5 -114.5q-48 -48 -109 -73t-133 -25q-67 0 -128 25.5t-111 74.5t-75.5 111t-25.5 132q0 69 25.5 131t74.5 112q48 49 111.5 75t132.5 26zM412 636q-60 0 -115.5 -23.5 t-98.5 -66.5q-43 -44 -65.5 -99t-22.5 -116q0 -126 89 -215q88 -88 212 -88q62 0 115.5 22t96.5 66q44 45 66.5 100t22.5 115t-23 117t-65 99t-97.5 65.5t-114.5 23.5zM421 533q75 0 115 -27t40 -71q0 -38 -34 -61t-106 -36q46 -14 69.5 -37.5t34.5 -65.5q4 -15 5.5 -28 t4 -23.5t7.5 -16.5t17 -6q33 0 33 65h21v-6q0 -87 -78 -87q-46 0 -62 32q-6 13 -8 26.5t-2.5 27t-1 25.5t-3.5 23q-19 65 -101 65h-16v-121q0 -27 13 -37t48 -12v-20h-188v20q35 1 48.5 11.5t13.5 37.5v252q0 28 -13.5 37.5t-48.5 11.5v21h192zM356 351q12 -1 20 -1h12 q57 0 86 22.5t29 62.5q0 34 -24.5 56.5t-71.5 22.5q-51 0 -51 -35v-128z" glyph-name="registered" horiz-adv-x="822" unicode="®"/>
<glyph d="M124 609h252v-61h-252v61z" glyph-name="macron" unicode="¯"/>
<glyph d="M124 609h252v-61h-252v61z" glyph-name="macron" unicode="ˉ"/>
<glyph d="M165 710q28 0 53.5 -11t44 -29.5t29.5 -44t11 -53.5t-11 -53t-29.5 -44t-44 -30t-54.5 -11t-54 10.5t-43.5 29.5t-29 44t-10.5 54t11 54.5t29.5 44t43.5 29t54 10.5zM165 670q-41 0 -70 -28t-29 -70q0 -21 8 -39t21.5 -31.5t31.5 -21t38 -7.5q21 0 39 8t31 21.5 t20.5 31.5t7.5 38q0 41 -28 69.5t-70 28.5z" glyph-name="degree" horiz-adv-x="329" unicode="°"/>
<glyph d="M709 77v-57h-585v57h585zM446 576v-168h263v-57h-263v-168h-58v168h-264v57h264v168h58z" glyph-name="plusminus" horiz-adv-x="833" unicode="±"/>
<glyph d="M33 275q0 20 7.5 37.5t20 35t28 35.5t32.5 39l55 66q23 29 35.5 51.5t12.5 42.5q0 26 -17.5 42t-43.5 16q-35 0 -62.5 -22t-56.5 -68l-12 4q63 121 158 121q45 0 70.5 -23t25.5 -58q0 -33 -21.5 -58.5t-55.5 -57.5l-78 -77q-23 -22 -40 -43t-28 -44h166q21 0 32 8.5 t21 30.5h13l-45 -118h-12v6q0 20 -9 23t-36 3h-160v8z" glyph-name="uni00B2" horiz-adv-x="331" unicode="²"/>
<glyph d="M118 463q41 40 64 68t23 55q0 23 -16 37.5t-42 14.5q-22 0 -43 -11t-45 -33l-10 7q35 37 65 56t63 19t53 -17.5t20 -45.5q0 -29 -18.5 -55t-54.5 -53q52 -4 82 -32t30 -75q0 -27 -11.5 -52t-31.5 -44t-47.5 -30.5t-59.5 -11.5q-52 0 -83 19.5t-31 40.5q0 10 7.5 16.5 t17.5 6.5q14 0 21.5 -9t15.5 -24q18 -36 60 -36q37 0 63.5 29.5t26.5 75.5q0 84 -115 84h-4z" glyph-name="uni00B3" horiz-adv-x="330" unicode="³"/>
<glyph d="M305 649q11 11 22.5 20t25.5 9q17 0 26 -11t9 -23q0 -14 -10 -24.5t-20 -16.5l-161 -100h-33z" glyph-name="acute" unicode="´"/>
<glyph d="M326 95q-45 -106 -137 -106q-95 0 -109 105q-15 -75 -21 -130.5t-12 -93t-16 -56t-31 -18.5q-18 0 -28.5 11.5t-10.5 31.5q0 15 7.5 44t19 71.5t26.5 99t30 127.5l53 251h72l-51 -240q-6 -30 -6 -55q0 -41 20.5 -63t57.5 -22q97 0 126 131l54 249h73l-56 -259 q-5 -22 -7.5 -38t-2.5 -29q0 -24 12.5 -38.5t32.5 -14.5q35 0 57 34q9 13 13.5 26.5l8 24t7.5 17.5t10 7q13 0 13 -18q0 -9 -4.5 -28.5t-15.5 -44.5q-36 -80 -112 -80q-32 0 -52.5 24t-20.5 69v11z" glyph-name="mu" horiz-adv-x="547" unicode="µ"/>
<glyph d="M326 95q-45 -106 -137 -106q-95 0 -109 105q-15 -75 -21 -130.5t-12 -93t-16 -56t-31 -18.5q-18 0 -28.5 11.5t-10.5 31.5q0 15 7.5 44t19 71.5t26.5 99t30 127.5l53 251h72l-51 -240q-6 -30 -6 -55q0 -41 20.5 -63t57.5 -22q97 0 126 131l54 249h73l-56 -259 q-5 -22 -7.5 -38t-2.5 -29q0 -24 12.5 -38.5t32.5 -14.5q35 0 57 34q9 13 13.5 26.5l8 24t7.5 17.5t10 7q13 0 13 -18q0 -9 -4.5 -28.5t-15.5 -44.5q-36 -80 -112 -80q-32 0 -52.5 24t-20.5 69v11z" glyph-name="mu" horiz-adv-x="547" unicode="μ"/>
<glyph d="M463 684h-61v-684h-46v684h-90v-684h-46v382q-86 4 -134.5 50.5t-48.5 119.5q0 37 13.5 68.5t38.5 54t60.5 35t79.5 12.5h234v-38z" glyph-name="paragraph" unicode="¶"/>
<glyph d="M67 333q0 25 16.5 42t42.5 17q25 0 42 -17t17 -42q0 -23 -18 -40.5t-41 -17.5q-24 0 -41.5 17t-17.5 41z" glyph-name="periodcentered" horiz-adv-x="252" unicode="·"/>
<glyph d="M67 333q0 25 16.5 42t42.5 17q25 0 42 -17t17 -42q0 -23 -18 -40.5t-41 -17.5q-24 0 -41.5 17t-17.5 41z" glyph-name="periodcentered" horiz-adv-x="252" unicode="⋅"/>
<glyph d="M67 333q0 25 16.5 42t42.5 17q25 0 42 -17t17 -42q0 -23 -18 -40.5t-41 -17.5q-24 0 -41.5 17t-17.5 41z" glyph-name="periodcentered" horiz-adv-x="252" unicode="∙"/>
<glyph d="M137 -143q24 -14 54 -24.5t59 -10.5q31 0 43.5 13t12.5 32q0 22 -15 33t-37 11q-7 0 -17.5 -1t-16.5 -3v93h31v-55q8 2 17.5 2.5t16.5 0.5q38 0 61.5 -21t23.5 -59q0 -42 -29.5 -64t-77.5 -22q-13 0 -48 5.5t-95 31.5z" glyph-name="cedilla" unicode="¸"/>
<glyph d="M77 280q23 0 35.5 2t18.5 6t7.5 12t1.5 20v251q0 18 -5 23.5t-28 5.5h-34v14q34 7 60 22t51 38h12v-353q0 -13 1 -20.5t6.5 -11.5t17 -6t32.5 -3v-13h-176v13z" glyph-name="uni00B9" horiz-adv-x="331" unicode="¹"/>
<glyph d="M333 541q0 -37 -11.5 -66.5t-32 -50.5t-49 -32.5t-62.5 -11.5q-69 0 -111.5 43.5t-42.5 117.5t42.5 117.5t111.5 43.5q34 0 63 -11.5t49 -32.5t31.5 -50.5t11.5 -66.5zM178 396q42 0 67 37.5t25 107.5q0 72 -25 108t-67 36t-66.5 -37t-24.5 -107q0 -71 24.5 -108 t66.5 -37z" glyph-name="ordmasculine" horiz-adv-x="358" unicode="º"/>
<glyph d="M272 81q-6 -6 -14 -6q-10 0 -10 11q0 8 14.5 29.5t40.5 58.5l38 52l-38 52q-26 37 -40.5 58.5t-14.5 29.5q0 10 9 10q10 0 15 -5l14 -15q32 -34 67.5 -66t75.5 -64q-48 -38 -82.5 -71t-60.5 -59zM105 81q-6 -6 -15 -6q-10 0 -10 11q0 8 14.5 29.5t40.5 58.5l38 52l-38 52 q-26 37 -40.5 58.5t-14.5 29.5q0 10 10 10t15 -5l14 -15q32 -34 67.5 -66t75.5 -64q-48 -38 -82.5 -71t-60.5 -59z" glyph-name="guillemotright" horiz-adv-x="506" unicode="»"/>
<glyph d="M74 305q22 0 34 2t17.5 6t6.5 11t1 18v234q0 17 -4 22.5t-27 5.5h-32v13q32 7 57 20.5t49 35.5h12v-330q0 -12 1 -19t6 -10.5t15.5 -5.5t30.5 -3v-12h-167v12zM598 691h51l-449 -724h-51zM673 112h-172v25l195 248h30v-237h62v-36h-62v-112h-53v112zM675 148v185 l-145 -185h145z" glyph-name="onequarter" horiz-adv-x="801" unicode="¼"/>
<glyph d="M516 7q0 19 7 35.5t19 32.5t27.5 33t31.5 36l51 62q23 27 34.5 48t11.5 40q0 23 -16.5 38.5t-41.5 15.5q-32 0 -58.5 -20.5t-55.5 -63.5l-10 4q58 113 150 113q42 0 67 -22t25 -54q0 -31 -20.5 -54.5t-52.5 -53.5l-75 -72q-22 -20 -38 -40t-27 -41h158q20 0 30.5 8 t20.5 29h12l-42 -111h-12v6q0 18 -8.5 21t-34.5 3h-153v7zM598 691h51l-449 -724h-51zM74 305q22 0 34 2t17.5 6t6.5 11t1 18v234q0 17 -4 22.5t-27 5.5h-32v13q32 7 57 20.5t49 35.5h12v-330q0 -12 1 -19t6 -10.5t15.5 -5.5t30.5 -3v-12h-167v12z" glyph-name="onehalf" horiz-adv-x="801" unicode="½"/>
<glyph d="M113 476q39 37 61 63t22 52q0 22 -14.5 35.5t-40.5 13.5q-20 0 -40.5 -11t-43.5 -31l-9 7q33 34 61.5 51.5t59.5 17.5q32 0 51.5 -16t19.5 -42q0 -27 -18 -51t-53 -50q51 -4 79.5 -30t28.5 -69q0 -26 -11 -49t-30 -41t-45.5 -28.5t-57.5 -10.5q-50 0 -79.5 18t-29.5 38 q0 9 7.5 15t16.5 6q14 0 21 -8.5t15 -22.5q9 -17 22.5 -25.5t34.5 -8.5q18 0 33.5 7.5t27 20.5t18.5 31.5t7 39.5q0 78 -109 78h-5zM598 691h51l-449 -724h-51zM673 112h-172v25l195 248h30v-237h62v-36h-62v-112h-53v112zM675 148v185l-145 -185h145z" glyph-name="threequarters" horiz-adv-x="801" unicode="¾"/>
<glyph d="M318 646q0 -25 -16.5 -42t-42.5 -17q-25 0 -41.5 17t-16.5 42q0 23 17.5 40.5t40.5 17.5q24 0 41.5 -17t17.5 -41zM269 276q-48 0 -81.5 -4.5t-55 -15.5t-31.5 -29.5t-10 -46.5q0 -47 25 -68.5t78 -29.5q21 -3 39 -5.5t31.5 -7t21 -12.5t7.5 -24q0 -20 -14 -32.5 t-40 -12.5q-27 0 -58 15.5t-57.5 42.5t-43.5 63.5t-17 78.5q0 84 42.5 122t135.5 41l5 155h23v-230z" glyph-name="questiondown" horiz-adv-x="384" unicode="¿"/>
<glyph d="M355 728l-161 100q-10 6 -20 16.5t-10 24.5q0 12 9 23t26 11q14 0 25.5 -9t22.5 -20l141 -146h-33zM368 289l-111 284l-103 -284h214zM-29 24l34 6q12 2 21.5 12.5t16.5 24.5t13 30.5t11 30.5l172 458q1 2 2 8.5t1 8.5q0 8 -2.5 12t-3.5 6l-9 15q32 24 49.5 44t25.5 33h9 l244 -635q11 -29 26 -42.5t48 -11.5v-24h-262v24l31 4q21 3 35 8t14 23q0 5 -1 14t-6 20l-61 167h-235l-51 -139q-2 -4 -4 -11.5t-4.5 -15.5t-4 -16t-1.5 -12q0 -12 6 -19.5t14.5 -11.5t18.5 -6t18 -3l21 -3v-23h-186v24z" glyph-name="Agrave" horiz-adv-x="604" unicode="À"/>
<glyph d="M357 874q11 11 22.5 20t25.5 9q17 0 26 -11t9 -23q0 -14 -10 -24.5t-20 -16.5l-161 -100h-33zM368 289l-111 284l-103 -284h214zM-29 24l34 6q12 2 21.5 12.5t16.5 24.5t13 30.5t11 30.5l172 458q1 2 2 8.5t1 8.5q0 8 -2.5 12t-3.5 6l-9 15q32 24 49.5 44t25.5 33h9 l244 -635q11 -29 26 -42.5t48 -11.5v-24h-262v24l31 4q21 3 35 8t14 23q0 5 -1 14t-6 20l-61 167h-235l-51 -139q-2 -4 -4 -11.5t-4.5 -15.5t-4 -16t-1.5 -12q0 -12 6 -19.5t14.5 -11.5t18.5 -6t18 -3l21 -3v-23h-186v24z" glyph-name="Aacute" horiz-adv-x="604" unicode="Á"/>
<glyph d="M273 899h58l113 -171h-28l-114 103l-114 -103h-28zM368 289l-111 284l-103 -284h214zM-29 24l34 6q12 2 21.5 12.5t16.5 24.5t13 30.5t11 30.5l172 458q1 2 2 8.5t1 8.5q0 8 -2.5 12t-3.5 6l-9 15q32 24 49.5 44t25.5 33h9l244 -635q11 -29 26 -42.5t48 -11.5v-24h-262 v24l31 4q21 3 35 8t14 23q0 5 -1 14t-6 20l-61 167h-235l-51 -139q-2 -4 -4 -11.5t-4.5 -15.5t-4 -16t-1.5 -12q0 -12 6 -19.5t14.5 -11.5t18.5 -6t18 -3l21 -3v-23h-186v24z" glyph-name="Acircumflex" horiz-adv-x="604" unicode="Â"/>
<glyph d="M442 873q-11 -58 -37 -79t-58 -21q-8 0 -18.5 1.5t-17.5 3.5l-53 14q-4 1 -11.5 2t-12.5 1q-20 0 -31 -11.5t-16 -32.5h-25q5 33 16 53t24.5 31.5t28 15.5t26.5 4q14 0 32 -5l54 -14q7 -2 13.5 -3t13.5 -1q17 0 28 8.5t18 32.5h26zM368 289l-111 284l-103 -284h214z M-29 24l34 6q12 2 21.5 12.5t16.5 24.5t13 30.5t11 30.5l172 458q1 2 2 8.5t1 8.5q0 8 -2.5 12t-3.5 6l-9 15q32 24 49.5 44t25.5 33h9l244 -635q11 -29 26 -42.5t48 -11.5v-24h-262v24l31 4q21 3 35 8t14 23q0 5 -1 14t-6 20l-61 167h-235l-51 -139q-2 -4 -4 -11.5 t-4.5 -15.5t-4 -16t-1.5 -12q0 -12 6 -19.5t14.5 -11.5t18.5 -6t18 -3l21 -3v-23h-186v24z" glyph-name="Atilde" horiz-adv-x="604" unicode="Ã"/>
<glyph d="M388 853q16 0 32 -13t16 -36q0 -20 -13.5 -34.5t-34.5 -14.5q-20 0 -34.5 13.5t-14.5 35.5q0 23 17 36t32 13zM216 853q15 0 32 -13t17 -36q0 -22 -14.5 -35.5t-34.5 -13.5q-21 0 -34.5 14.5t-13.5 34.5q0 23 16 36t32 13zM368 289l-111 284l-103 -284h214zM-29 24l34 6 q12 2 21.5 12.5t16.5 24.5t13 30.5t11 30.5l172 458q1 2 2 8.5t1 8.5q0 8 -2.5 12t-3.5 6l-9 15q32 24 49.5 44t25.5 33h9l244 -635q11 -29 26 -42.5t48 -11.5v-24h-262v24l31 4q21 3 35 8t14 23q0 5 -1 14t-6 20l-61 167h-235l-51 -139q-2 -4 -4 -11.5t-4.5 -15.5t-4 -16 t-1.5 -12q0 -12 6 -19.5t14.5 -11.5t18.5 -6t18 -3l21 -3v-23h-186v24z" glyph-name="Adieresis" horiz-adv-x="604" unicode="Ä"/>
<glyph d="M-29 24l34 6q12 2 21.5 12.5t16.5 24.5t13 30.5t11 30.5l172 458q1 2 2 8.5t1 8.5q0 8 -2.5 12t-3.5 6l-9 15q32 24 49.5 44t25.5 33h9l244 -635q11 -29 26 -42.5t48 -11.5v-24h-262v24l31 4q21 3 35 8t14 23q0 5 -1 14t-6 20l-61 167h-235l-51 -139q-2 -4 -4 -11.5 t-4.5 -15.5t-4 -16t-1.5 -12q0 -12 6 -19.5t14.5 -11.5t18.5 -6t18 -3l21 -3v-23h-186v24zM368 289l-111 284l-103 -284h214zM414 848q0 -24 -9.5 -45.5t-25.5 -37.5t-37.5 -25.5t-45.5 -9.5t-45.5 9.5t-37.5 25.5t-25 37.5t-9 45.5t9 45.5t25 37.5t37.5 25t45.5 9t45.5 -9 t37.5 -25t25.5 -37.5t9.5 -45.5zM369 848q0 30 -21.5 51.5t-51.5 21.5t-51.5 -21.5t-21.5 -51.5q0 -31 21.5 -52.5t51.5 -21.5t51.5 21.5t21.5 52.5z" glyph-name="Aring" horiz-adv-x="604" unicode="Å"/>
<glyph d="M207 333h192v326zM803 0h-477v23q26 0 40.5 4.5t22 13.5t9 24t1.5 37v204h-209l-113 -199q-8 -14 -13 -24.5t-5 -21.5q0 -39 78 -40v-21h-195v21q20 1 35 9.5t27.5 23t24 33.5t25.5 43l273 466q6 11 9 20.5t3 15.5q0 39 -64 39h-9v23h500l50 -159l-21 -8q-24 38 -45.5 67 t-50.5 48q-33 22 -75 25.5t-99 3.5h-24v-305q11 0 17.5 -0.5t8.5 -0.5q36 0 61.5 6t42.5 21t27 39.5t15 61.5h18v-278h-18q-5 37 -15 61.5t-27 39t-42.5 20.5t-61.5 6h-26v-244q0 -21 3 -35t11 -23t22.5 -13t37.5 -4q46 0 79 7t60.5 25t52.5 50t55 82l19 -6z" glyph-name="AE" horiz-adv-x="855" unicode="Æ"/>
<glyph d="M654 244v-228h-20l-18 37q-4 7 -9 7q-18 0 -33 -11.5t-37.5 -25t-57.5 -24.5t-92 -11v-43q8 2 17.5 2.5t16.5 0.5q38 0 61.5 -21t23.5 -59q0 -42 -29.5 -64t-77.5 -22q-13 0 -48 5.5t-95 31.5l17 38q24 -14 54 -24.5t59 -10.5q31 0 43.5 13t12.5 32q0 22 -15 33t-37 11 q-7 0 -17.5 -1t-16.5 -3v82q-63 4 -110 27t-76 46q-42 34 -67.5 72t-38.5 76.5t-17 74t-4 63.5q0 19 2.5 45t10 55.5t22 61.5t38.5 64q19 26 46.5 50t61 42t74 29t87.5 11q34 0 60 -4.5t47.5 -12t39.5 -16.5t35 -17t24.5 -11.5t15.5 -3.5t13.5 4t9 9.5t5 11.5l2.5 10h18 v-232h-21q-3 32 -13.5 67t-30.5 66q-12 19 -29 38t-39.5 34t-51.5 24.5t-65 9.5q-15 0 -41.5 -4t-57 -19.5t-61.5 -45.5t-56 -82q-22 -45 -30.5 -91t-8.5 -99q0 -41 7 -87t29 -92q38 -79 96.5 -114t120.5 -35q20 0 43 4t47 15.5t47.5 30.5t43.5 49q19 28 32 62t19 69h19z " glyph-name="Ccedilla" horiz-adv-x="712" unicode="Ç"/>
<glyph d="M376 728l-161 100q-10 6 -20 16.5t-10 24.5q0 12 9 23t26 11q14 0 25.5 -9t22.5 -20l141 -146h-33zM55 23q5 0 14 0.5t18.5 2t18 4t12.5 7.5q8 8 9 22t1 30v513q0 20 -1.5 33t-7.5 21q-7 8 -20.5 11t-27.5 3h-16v24h502l50 -159l-21 -8q-5 9 -15 25t-23 33t-28.5 33.5 t-30.5 26.5q-32 21 -70 23.5t-87 2.5h-102v-305h52h27.5t31.5 2t31 6.5t27 13.5q23 17 34.5 48t13.5 57h17v-278h-17q-1 12 -4.5 26.5t-9.5 29.5t-14.5 28t-19.5 21q-14 11 -40.5 16.5t-76.5 5.5h-52v-244q0 -16 2.5 -33t13.5 -28q15 -14 66 -14h61q32 0 64.5 4.5t61.5 21.5 q15 9 31 24.5t31 34.5t28.5 40t23.5 39l19 -6l-37 -181h-540v23z" glyph-name="Egrave" horiz-adv-x="646" unicode="È"/>
<glyph d="M378 874q11 11 22.5 20t25.5 9q17 0 26 -11t9 -23q0 -14 -10 -24.5t-20 -16.5l-161 -100h-33zM55 23q5 0 14 0.5t18.5 2t18 4t12.5 7.5q8 8 9 22t1 30v513q0 20 -1.5 33t-7.5 21q-7 8 -20.5 11t-27.5 3h-16v24h502l50 -159l-21 -8q-5 9 -15 25t-23 33t-28.5 33.5 t-30.5 26.5q-32 21 -70 23.5t-87 2.5h-102v-305h52h27.5t31.5 2t31 6.5t27 13.5q23 17 34.5 48t13.5 57h17v-278h-17q-1 12 -4.5 26.5t-9.5 29.5t-14.5 28t-19.5 21q-14 11 -40.5 16.5t-76.5 5.5h-52v-244q0 -16 2.5 -33t13.5 -28q15 -14 66 -14h61q32 0 64.5 4.5t61.5 21.5 q15 9 31 24.5t31 34.5t28.5 40t23.5 39l19 -6l-37 -181h-540v23z" glyph-name="Eacute" horiz-adv-x="646" unicode="É"/>
<glyph d="M294 899h58l113 -171h-28l-114 103l-114 -103h-28zM55 23q5 0 14 0.5t18.5 2t18 4t12.5 7.5q8 8 9 22t1 30v513q0 20 -1.5 33t-7.5 21q-7 8 -20.5 11t-27.5 3h-16v24h502l50 -159l-21 -8q-5 9 -15 25t-23 33t-28.5 33.5t-30.5 26.5q-32 21 -70 23.5t-87 2.5h-102v-305h52 h27.5t31.5 2t31 6.5t27 13.5q23 17 34.5 48t13.5 57h17v-278h-17q-1 12 -4.5 26.5t-9.5 29.5t-14.5 28t-19.5 21q-14 11 -40.5 16.5t-76.5 5.5h-52v-244q0 -16 2.5 -33t13.5 -28q15 -14 66 -14h61q32 0 64.5 4.5t61.5 21.5q15 9 31 24.5t31 34.5t28.5 40t23.5 39l19 -6 l-37 -181h-540v23z" glyph-name="Ecircumflex" horiz-adv-x="646" unicode="Ê"/>
<glyph d="M409 853q16 0 32 -13t16 -36q0 -20 -13.5 -34.5t-34.5 -14.5q-20 0 -34.5 13.5t-14.5 35.5q0 23 17 36t32 13zM237 853q15 0 32 -13t17 -36q0 -22 -14.5 -35.5t-34.5 -13.5q-21 0 -34.5 14.5t-13.5 34.5q0 23 16 36t32 13zM55 23q5 0 14 0.5t18.5 2t18 4t12.5 7.5 q8 8 9 22t1 30v513q0 20 -1.5 33t-7.5 21q-7 8 -20.5 11t-27.5 3h-16v24h502l50 -159l-21 -8q-5 9 -15 25t-23 33t-28.5 33.5t-30.5 26.5q-32 21 -70 23.5t-87 2.5h-102v-305h52h27.5t31.5 2t31 6.5t27 13.5q23 17 34.5 48t13.5 57h17v-278h-17q-1 12 -4.5 26.5t-9.5 29.5 t-14.5 28t-19.5 21q-14 11 -40.5 16.5t-76.5 5.5h-52v-244q0 -16 2.5 -33t13.5 -28q15 -14 66 -14h61q32 0 64.5 4.5t61.5 21.5q15 9 31 24.5t31 34.5t28.5 40t23.5 39l19 -6l-37 -181h-540v23z" glyph-name="Edieresis" horiz-adv-x="646" unicode="Ë"/>
<glyph d="M242 728l-161 100q-10 6 -20 16.5t-10 24.5q0 12 9 23t26 11q14 0 25.5 -9t22.5 -20l141 -146h-33zM322 671h-20q-17 0 -28.5 -0.5t-19 -6t-11 -18t-3.5 -35.5v-527q0 -18 1 -30t7 -19t19 -9.5t38 -2.5h17v-23h-267v23h14q28 0 42 4t20 12t6 19v26v527v26.5t-5.5 19 t-18.5 11t-39 3.5h-19v23h267v-23z" glyph-name="Igrave" horiz-adv-x="377" unicode="Ì"/>
<glyph d="M244 874q11 11 22.5 20t25.5 9q17 0 26 -11t9 -23q0 -14 -10 -24.5t-20 -16.5l-161 -100h-33zM322 671h-20q-17 0 -28.5 -0.5t-19 -6t-11 -18t-3.5 -35.5v-527q0 -18 1 -30t7 -19t19 -9.5t38 -2.5h17v-23h-267v23h14q28 0 42 4t20 12t6 19v26v527v26.5t-5.5 19t-18.5 11 t-39 3.5h-19v23h267v-23z" glyph-name="Iacute" horiz-adv-x="377" unicode="Í"/>
<glyph d="M160 899h58l113 -171h-28l-114 103l-114 -103h-28zM322 671h-20q-17 0 -28.5 -0.5t-19 -6t-11 -18t-3.5 -35.5v-527q0 -18 1 -30t7 -19t19 -9.5t38 -2.5h17v-23h-267v23h14q28 0 42 4t20 12t6 19v26v527v26.5t-5.5 19t-18.5 11t-39 3.5h-19v23h267v-23z" glyph-name="Icircumflex" horiz-adv-x="377" unicode="Î"/>
<glyph d="M275 853q16 0 32 -13t16 -36q0 -20 -13.5 -34.5t-34.5 -14.5q-20 0 -34.5 13.5t-14.5 35.5q0 23 17 36t32 13zM103 853q15 0 32 -13t17 -36q0 -22 -14.5 -35.5t-34.5 -13.5q-21 0 -34.5 14.5t-13.5 34.5q0 23 16 36t32 13zM322 671h-20q-17 0 -28.5 -0.5t-19 -6t-11 -18 t-3.5 -35.5v-527q0 -18 1 -30t7 -19t19 -9.5t38 -2.5h17v-23h-267v23h14q28 0 42 4t20 12t6 19v26v527v26.5t-5.5 19t-18.5 11t-39 3.5h-19v23h267v-23z" glyph-name="Idieresis" horiz-adv-x="377" unicode="Ï"/>
<glyph d="M230 111q0 -27 4.5 -45t15.5 -29.5t30 -16t48 -4.5q60 0 105.5 9.5t86.5 38.5q57 41 89 113.5t32 168.5q0 94 -30.5 166t-84.5 114q-40 32 -88.5 42t-111.5 10q-32 0 -51 -4.5t-29 -15t-13 -28t-3 -43.5v-214h197v-34h-197v-228zM55 24q26 1 40.5 5t22 12t9 21.5 t1.5 33.5v243h-128v34h128v236q0 35 -14.5 47t-58.5 14v24h94q72 0 129.5 2.5t100.5 2.5q87 0 156 -25t117 -70.5t73 -111t25 -146.5q0 -94 -36.5 -168.5t-102.5 -119.5q-93 -63 -286 -63q-43 0 -94.5 2.5t-112.5 2.5h-63v24z" glyph-name="Eth" horiz-adv-x="789" unicode="Ð"/>
<glyph d="M544 873q-11 -58 -37 -79t-58 -21q-8 0 -18.5 1.5t-17.5 3.5l-53 14q-4 1 -11.5 2t-12.5 1q-20 0 -31 -11.5t-16 -32.5h-25q5 33 16 53t24.5 31.5t28 15.5t26.5 4q14 0 32 -5l54 -14q7 -2 13.5 -3t13.5 -1q17 0 28 8.5t18 32.5h26zM75 656q-5 3 -17 9t-33 8v21h156 l484 -539v423q0 30 -5 48.5t-14.5 29t-22.5 14t-29 3.5h-21v21h211v-21h-20q-16 0 -29 -4t-22 -14.5t-14 -29t-5 -47.5v-586h-20l-526 599v-458q0 -64 19 -88t52 -24h21v-21h-211v21h20q17 0 30 4.5t22 17t13.5 34.5t4.5 56v489z" glyph-name="Ntilde" horiz-adv-x="809" unicode="Ñ"/>
<glyph d="M435 728l-161 100q-10 6 -20 16.5t-10 24.5q0 12 9 23t26 11q14 0 25.5 -9t22.5 -20l141 -146h-33zM617 346q0 87 -20 151t-52.5 105.5t-74 61.5t-85.5 20q-45 0 -87.5 -21t-75.5 -63t-53 -106t-20 -151q0 -85 20 -147t53 -103t75 -61t85 -20q45 0 87 20t75 61.5t53 104 t20 148.5zM722 345q0 -79 -25 -144.5t-69.5 -113t-107 -73.5t-137.5 -26q-77 0 -140 28.5t-107.5 77t-68.5 114.5t-24 141q0 78 24.5 143.5t69.5 113t107 74t137 26.5q74 0 136.5 -26t108 -73.5t71 -114t25.5 -147.5z" glyph-name="Ograve" horiz-adv-x="764" unicode="Ò"/>
<glyph d="M437 874q11 11 22.5 20t25.5 9q17 0 26 -11t9 -23q0 -14 -10 -24.5t-20 -16.5l-161 -100h-33zM617 346q0 87 -20 151t-52.5 105.5t-74 61.5t-85.5 20q-45 0 -87.5 -21t-75.5 -63t-53 -106t-20 -151q0 -85 20 -147t53 -103t75 -61t85 -20q45 0 87 20t75 61.5t53 104 t20 148.5zM722 345q0 -79 -25 -144.5t-69.5 -113t-107 -73.5t-137.5 -26q-77 0 -140 28.5t-107.5 77t-68.5 114.5t-24 141q0 78 24.5 143.5t69.5 113t107 74t137 26.5q74 0 136.5 -26t108 -73.5t71 -114t25.5 -147.5z" glyph-name="Oacute" horiz-adv-x="764" unicode="Ó"/>
<glyph d="M353 899h58l113 -171h-28l-114 103l-114 -103h-28zM617 346q0 87 -20 151t-52.5 105.5t-74 61.5t-85.5 20q-45 0 -87.5 -21t-75.5 -63t-53 -106t-20 -151q0 -85 20 -147t53 -103t75 -61t85 -20q45 0 87 20t75 61.5t53 104t20 148.5zM722 345q0 -79 -25 -144.5t-69.5 -113 t-107 -73.5t-137.5 -26q-77 0 -140 28.5t-107.5 77t-68.5 114.5t-24 141q0 78 24.5 143.5t69.5 113t107 74t137 26.5q74 0 136.5 -26t108 -73.5t71 -114t25.5 -147.5z" glyph-name="Ocircumflex" horiz-adv-x="764" unicode="Ô"/>
<glyph d="M522 873q-11 -58 -37 -79t-58 -21q-8 0 -18.5 1.5t-17.5 3.5l-53 14q-4 1 -11.5 2t-12.5 1q-20 0 -31 -11.5t-16 -32.5h-25q5 33 16 53t24.5 31.5t28 15.5t26.5 4q14 0 32 -5l54 -14q7 -2 13.5 -3t13.5 -1q17 0 28 8.5t18 32.5h26zM617 346q0 87 -20 151t-52.5 105.5 t-74 61.5t-85.5 20q-45 0 -87.5 -21t-75.5 -63t-53 -106t-20 -151q0 -85 20 -147t53 -103t75 -61t85 -20q45 0 87 20t75 61.5t53 104t20 148.5zM722 345q0 -79 -25 -144.5t-69.5 -113t-107 -73.5t-137.5 -26q-77 0 -140 28.5t-107.5 77t-68.5 114.5t-24 141q0 78 24.5 143.5 t69.5 113t107 74t137 26.5q74 0 136.5 -26t108 -73.5t71 -114t25.5 -147.5z" glyph-name="Otilde" horiz-adv-x="764" unicode="Õ"/>
<glyph d="M468 853q16 0 32 -13t16 -36q0 -20 -13.5 -34.5t-34.5 -14.5q-20 0 -34.5 13.5t-14.5 35.5q0 23 17 36t32 13zM296 853q15 0 32 -13t17 -36q0 -22 -14.5 -35.5t-34.5 -13.5q-21 0 -34.5 14.5t-13.5 34.5q0 23 16 36t32 13zM617 346q0 87 -20 151t-52.5 105.5t-74 61.5 t-85.5 20q-45 0 -87.5 -21t-75.5 -63t-53 -106t-20 -151q0 -85 20 -147t53 -103t75 -61t85 -20q45 0 87 20t75 61.5t53 104t20 148.5zM722 345q0 -79 -25 -144.5t-69.5 -113t-107 -73.5t-137.5 -26q-77 0 -140 28.5t-107.5 77t-68.5 114.5t-24 141q0 78 24.5 143.5t69.5 113 t107 74t137 26.5q74 0 136.5 -26t108 -73.5t71 -114t25.5 -147.5z" glyph-name="Odieresis" horiz-adv-x="764" unicode="Ö"/>
<glyph d="M419 338l232 233l40 -40l-232 -233l232 -232l-40 -40l-232 232l-233 -232l-39 40l232 232l-232 233l39 40z" glyph-name="multiply" horiz-adv-x="833" unicode="×"/>
<glyph d="M94 -93l92 142q-71 52 -107 127.5t-36 171.5q0 78 24.5 144t69 113.5t106.5 74t136 26.5q57 0 107 -15t91 -43l75 115h38l-87 -135q119 -101 119 -283q0 -80 -25 -146t-70 -113t-107 -73t-136 -26q-89 0 -171 44l-81 -124h-38zM546 603q-66 81 -160 81q-51 0 -94.5 -23.5 t-75 -68t-49 -108t-17.5 -144.5q0 -150 69 -240zM240 74q62 -62 143 -62q50 0 92.5 23t74 66t49.5 105.5t18 141.5q0 49 -6.5 87.5t-14.5 66t-17 45t-13 24.5z" glyph-name="Oslash" horiz-adv-x="764" unicode="Ø"/>
<glyph d="M430 728l-161 100q-10 6 -20 16.5t-10 24.5q0 12 9 23t26 11q14 0 25.5 -9t22.5 -20l141 -146h-33zM122 606q0 13 -0.5 25.5t-7 21.5t-21.5 14t-44 4v23h257v-23h-25q-14 0 -25 -0.5t-18 -5.5t-10.5 -17.5t-3.5 -36.5v-415q0 -41 14 -74.5t38.5 -57.5t59 -37t75.5 -13 q50 0 84.5 15t57 39t34.5 53t18 58t7 54t1 40v305q0 30 -4.5 48t-13.5 28t-22.5 13.5t-30.5 3.5h-21v23h204v-23h-18q-15 0 -27 -3.5t-20.5 -13t-13 -28t-4.5 -48.5v-316q0 -17 -1.5 -44t-9 -57.5t-23 -61.5t-44 -55.5t-71.5 -40t-106 -15.5q-51 0 -89.5 8.5t-67 23 t-47.5 34t-31 42.5q-21 40 -25.5 91.5t-4.5 109.5v309z" glyph-name="Ugrave" horiz-adv-x="755" unicode="Ù"/>
<glyph d="M432 874q11 11 22.5 20t25.5 9q17 0 26 -11t9 -23q0 -14 -10 -24.5t-20 -16.5l-161 -100h-33zM122 606q0 13 -0.5 25.5t-7 21.5t-21.5 14t-44 4v23h257v-23h-25q-14 0 -25 -0.5t-18 -5.5t-10.5 -17.5t-3.5 -36.5v-415q0 -41 14 -74.5t38.5 -57.5t59 -37t75.5 -13 q50 0 84.5 15t57 39t34.5 53t18 58t7 54t1 40v305q0 30 -4.5 48t-13.5 28t-22.5 13.5t-30.5 3.5h-21v23h204v-23h-18q-15 0 -27 -3.5t-20.5 -13t-13 -28t-4.5 -48.5v-316q0 -17 -1.5 -44t-9 -57.5t-23 -61.5t-44 -55.5t-71.5 -40t-106 -15.5q-51 0 -89.5 8.5t-67 23 t-47.5 34t-31 42.5q-21 40 -25.5 91.5t-4.5 109.5v309z" glyph-name="Uacute" horiz-adv-x="755" unicode="Ú"/>
<glyph d="M360 899h58l113 -171h-28l-114 103l-114 -103h-28zM122 606q0 13 -0.5 25.5t-7 21.5t-21.5 14t-44 4v23h257v-23h-25q-14 0 -25 -0.5t-18 -5.5t-10.5 -17.5t-3.5 -36.5v-415q0 -41 14 -74.5t38.5 -57.5t59 -37t75.5 -13q50 0 84.5 15t57 39t34.5 53t18 58t7 54t1 40v305 q0 30 -4.5 48t-13.5 28t-22.5 13.5t-30.5 3.5h-21v23h204v-23h-18q-15 0 -27 -3.5t-20.5 -13t-13 -28t-4.5 -48.5v-316q0 -17 -1.5 -44t-9 -57.5t-23 -61.5t-44 -55.5t-71.5 -40t-106 -15.5q-51 0 -89.5 8.5t-67 23t-47.5 34t-31 42.5q-21 40 -25.5 91.5t-4.5 109.5v309z " glyph-name="Ucircumflex" horiz-adv-x="755" unicode="Û"/>
<glyph d="M476 853q16 0 32 -13t16 -36q0 -20 -13.5 -34.5t-34.5 -14.5q-20 0 -34.5 13.5t-14.5 35.5q0 23 17 36t32 13zM304 853q15 0 32 -13t17 -36q0 -22 -14.5 -35.5t-34.5 -13.5q-21 0 -34.5 14.5t-13.5 34.5q0 23 16 36t32 13zM122 606q0 13 -0.5 25.5t-7 21.5t-21.5 14 t-44 4v23h257v-23h-25q-14 0 -25 -0.5t-18 -5.5t-10.5 -17.5t-3.5 -36.5v-415q0 -41 14 -74.5t38.5 -57.5t59 -37t75.5 -13q50 0 84.5 15t57 39t34.5 53t18 58t7 54t1 40v305q0 30 -4.5 48t-13.5 28t-22.5 13.5t-30.5 3.5h-21v23h204v-23h-18q-15 0 -27 -3.5t-20.5 -13 t-13 -28t-4.5 -48.5v-316q0 -17 -1.5 -44t-9 -57.5t-23 -61.5t-44 -55.5t-71.5 -40t-106 -15.5q-51 0 -89.5 8.5t-67 23t-47.5 34t-31 42.5q-21 40 -25.5 91.5t-4.5 109.5v309z" glyph-name="Udieresis" horiz-adv-x="755" unicode="Ü"/>
<glyph d="M313 874q11 11 22.5 20t25.5 9q17 0 26 -11t9 -23q0 -14 -10 -24.5t-20 -16.5l-161 -100h-33zM314 94q0 -20 1.5 -34t8.5 -23t22 -12.5t42 -0.5v-24h-251v24h7q18 0 30.5 0.5t20.5 7t12 21.5t4 44v217l-177 308q-5 8 -11 17t-14.5 16t-20 11.5t-26.5 4.5v23h249v-23 h-17.5t-23 -3t-20 -9.5t-8.5 -18.5q0 -8 3 -13.5t6 -10.5l151 -258l120 207q11 20 20 37t9 33q0 6 -2 12.5t-8 12t-18 9.5t-32 5v20h177v-23q-34 -1 -54 -19.5t-44 -59.5l-156 -261v-237z" glyph-name="Yacute" horiz-adv-x="517" unicode="Ý"/>
<glyph d="M55 24h7q24 0 37.5 3t19.5 11t7.5 21t1.5 34v530q0 26 -13.5 36.5t-42.5 10.5h-17v24h249v-24h-17q-21 0 -33 -4.5t-17 -14t-6 -24t-1 -34.5v-40q15 1 30 1.5t29 0.5q288 0 288 -199q0 -111 -75.5 -157t-229.5 -46q-5 0 -15.5 0.5t-26.5 0.5v-70q0 -21 4 -33t14.5 -18 t27 -8t42.5 -2v-23h-263v24zM230 181q12 -1 23.5 -1.5t22.5 -0.5q103 0 149.5 40.5t46.5 137.5q0 85 -42 130t-123 45q-45 0 -61 -16t-16 -54v-281z" glyph-name="Thorn" horiz-adv-x="606" unicode="Þ"/>
<glyph d="M25 19q25 2 39 6.5t20.5 15t7.5 28.5t1 47v362q0 112 48 168t139 56q40 0 73.5 -11.5t57 -31.5t36.5 -47t13 -59q0 -51 -34 -86.5t-98 -49.5v-7q88 -20 133 -71.5t45 -129.5q0 -48 -15.5 -88.5t-42 -70t-63 -46t-78.5 -16.5q-50 0 -80 24t-30 54q0 17 10 27t26 10 q19 0 29 -12.5t16 -37.5q5 -22 14.5 -32.5t27.5 -10.5q41 0 70.5 51.5t29.5 145.5q0 190 -179 199v18h6q69 0 101.5 33t32.5 105q0 58 -28 89.5t-76 31.5q-40 0 -62 -19t-32.5 -56.5t-13 -92.5t-2.5 -126v-389h-142v19z" glyph-name="germandbls" horiz-adv-x="547" unicode="ß"/>
<glyph d="M268 503l-161 100q-10 6 -20 16.5t-10 24.5q0 12 9 23t26 11q14 0 25.5 -9t22.5 -20l141 -146h-33zM269 235q-7 -3 -21.5 -8.5t-32 -13.5t-36 -17.5t-34.5 -20.5q-14 -9 -26 -23.5t-12 -39.5q0 -30 23 -49t53 -19q13 0 26.5 4.5t24.5 10.5t20 13t15 12v151zM414 70 q-2 -38 -24.5 -58.5t-54.5 -20.5q-28 0 -47.5 17.5t-21.5 50.5q-9 -9 -22.5 -21t-31 -23t-38 -18.5t-42.5 -7.5q-42 0 -68 24t-26 65q0 24 8 42t20 32t26.5 24t28.5 18q34 20 76.5 37.5t74.5 28.5v100q0 9 -1.5 19.5t-7.5 19.5t-17 15t-30 6q-14 0 -29 -3t-28 -9 t-22.5 -16.5t-11.5 -25.5q-2 -9 -1 -23t-5 -31q-4 -11 -13 -20.5t-30 -9.5q-20 0 -29 10.5t-9 26.5q0 12 5 22t12 19t15 16t14 12q45 35 88.5 48.5t75.5 13.5q34 0 50 -8.5t21 -12.5q11 -10 17 -25t9 -31t3.5 -31t0.5 -25v-254q0 -11 5 -19t15 -8q11 0 18 10t8 24h19z" glyph-name="agrave" horiz-adv-x="429" unicode="à"/>
<glyph d="M270 649q11 11 22.5 20t25.5 9q17 0 26 -11t9 -23q0 -14 -10 -24.5t-20 -16.5l-161 -100h-33zM269 235q-7 -3 -21.5 -8.5t-32 -13.5t-36 -17.5t-34.5 -20.5q-14 -9 -26 -23.5t-12 -39.5q0 -30 23 -49t53 -19q13 0 26.5 4.5t24.5 10.5t20 13t15 12v151zM414 70 q-2 -38 -24.5 -58.5t-54.5 -20.5q-28 0 -47.5 17.5t-21.5 50.5q-9 -9 -22.5 -21t-31 -23t-38 -18.5t-42.5 -7.5q-42 0 -68 24t-26 65q0 24 8 42t20 32t26.5 24t28.5 18q34 20 76.5 37.5t74.5 28.5v100q0 9 -1.5 19.5t-7.5 19.5t-17 15t-30 6q-14 0 -29 -3t-28 -9 t-22.5 -16.5t-11.5 -25.5q-2 -9 -1 -23t-5 -31q-4 -11 -13 -20.5t-30 -9.5q-20 0 -29 10.5t-9 26.5q0 12 5 22t12 19t15 16t14 12q45 35 88.5 48.5t75.5 13.5q34 0 50 -8.5t21 -12.5q11 -10 17 -25t9 -31t3.5 -31t0.5 -25v-254q0 -11 5 -19t15 -8q11 0 18 10t8 24h19z" glyph-name="aacute" horiz-adv-x="429" unicode="á"/>
<glyph d="M186 674h58l113 -171h-28l-114 103l-114 -103h-28zM269 235q-7 -3 -21.5 -8.5t-32 -13.5t-36 -17.5t-34.5 -20.5q-14 -9 -26 -23.5t-12 -39.5q0 -30 23 -49t53 -19q13 0 26.5 4.5t24.5 10.5t20 13t15 12v151zM414 70q-2 -38 -24.5 -58.5t-54.5 -20.5q-28 0 -47.5 17.5 t-21.5 50.5q-9 -9 -22.5 -21t-31 -23t-38 -18.5t-42.5 -7.5q-42 0 -68 24t-26 65q0 24 8 42t20 32t26.5 24t28.5 18q34 20 76.5 37.5t74.5 28.5v100q0 9 -1.5 19.5t-7.5 19.5t-17 15t-30 6q-14 0 -29 -3t-28 -9t-22.5 -16.5t-11.5 -25.5q-2 -9 -1 -23t-5 -31 q-4 -11 -13 -20.5t-30 -9.5q-20 0 -29 10.5t-9 26.5q0 12 5 22t12 19t15 16t14 12q45 35 88.5 48.5t75.5 13.5q34 0 50 -8.5t21 -12.5q11 -10 17 -25t9 -31t3.5 -31t0.5 -25v-254q0 -11 5 -19t15 -8q11 0 18 10t8 24h19z" glyph-name="acircumflex" horiz-adv-x="429" unicode="â"/>
<glyph d="M355 648q-11 -58 -37 -79t-58 -21q-8 0 -18.5 1.5t-17.5 3.5l-53 14q-4 1 -11.5 2t-12.5 1q-20 0 -31 -11.5t-16 -32.5h-25q5 33 16 53t24.5 31.5t28 15.5t26.5 4q14 0 32 -5l54 -14q7 -2 13.5 -3t13.5 -1q17 0 28 8.5t18 32.5h26zM269 235q-7 -3 -21.5 -8.5t-32 -13.5 t-36 -17.5t-34.5 -20.5q-14 -9 -26 -23.5t-12 -39.5q0 -30 23 -49t53 -19q13 0 26.5 4.5t24.5 10.5t20 13t15 12v151zM414 70q-2 -38 -24.5 -58.5t-54.5 -20.5q-28 0 -47.5 17.5t-21.5 50.5q-9 -9 -22.5 -21t-31 -23t-38 -18.5t-42.5 -7.5q-42 0 -68 24t-26 65q0 24 8 42 t20 32t26.5 24t28.5 18q34 20 76.5 37.5t74.5 28.5v100q0 9 -1.5 19.5t-7.5 19.5t-17 15t-30 6q-14 0 -29 -3t-28 -9t-22.5 -16.5t-11.5 -25.5q-2 -9 -1 -23t-5 -31q-4 -11 -13 -20.5t-30 -9.5q-20 0 -29 10.5t-9 26.5q0 12 5 22t12 19t15 16t14 12q45 35 88.5 48.5 t75.5 13.5q34 0 50 -8.5t21 -12.5q11 -10 17 -25t9 -31t3.5 -31t0.5 -25v-254q0 -11 5 -19t15 -8q11 0 18 10t8 24h19z" glyph-name="atilde" horiz-adv-x="429" unicode="ã"/>
<glyph d="M301 628q16 0 32 -13t16 -36q0 -20 -13.5 -34.5t-34.5 -14.5q-20 0 -34.5 13.5t-14.5 35.5q0 23 17 36t32 13zM129 628q15 0 32 -13t17 -36q0 -22 -14.5 -35.5t-34.5 -13.5q-21 0 -34.5 14.5t-13.5 34.5q0 23 16 36t32 13zM269 235q-7 -3 -21.5 -8.5t-32 -13.5t-36 -17.5 t-34.5 -20.5q-14 -9 -26 -23.5t-12 -39.5q0 -30 23 -49t53 -19q13 0 26.5 4.5t24.5 10.5t20 13t15 12v151zM414 70q-2 -38 -24.5 -58.5t-54.5 -20.5q-28 0 -47.5 17.5t-21.5 50.5q-9 -9 -22.5 -21t-31 -23t-38 -18.5t-42.5 -7.5q-42 0 -68 24t-26 65q0 24 8 42t20 32 t26.5 24t28.5 18q34 20 76.5 37.5t74.5 28.5v100q0 9 -1.5 19.5t-7.5 19.5t-17 15t-30 6q-14 0 -29 -3t-28 -9t-22.5 -16.5t-11.5 -25.5q-2 -9 -1 -23t-5 -31q-4 -11 -13 -20.5t-30 -9.5q-20 0 -29 10.5t-9 26.5q0 12 5 22t12 19t15 16t14 12q45 35 88.5 48.5t75.5 13.5 q34 0 50 -8.5t21 -12.5q11 -10 17 -25t9 -31t3.5 -31t0.5 -25v-254q0 -11 5 -19t15 -8q11 0 18 10t8 24h19z" glyph-name="adieresis" horiz-adv-x="429" unicode="ä"/>
<glyph d="M414 70q-2 -38 -24.5 -58.5t-54.5 -20.5q-28 0 -47.5 17.5t-21.5 50.5q-9 -9 -22.5 -21t-31 -23t-38 -18.5t-42.5 -7.5q-42 0 -68 24t-26 65q0 24 8 42t20 32t26.5 24t28.5 18q34 20 76.5 37.5t74.5 28.5v100q0 9 -1.5 19.5t-7.5 19.5t-17 15t-30 6q-14 0 -29 -3t-28 -9 t-22.5 -16.5t-11.5 -25.5q-2 -9 -1 -23t-5 -31q-4 -11 -13 -20.5t-30 -9.5q-20 0 -29 10.5t-9 26.5q0 12 5 22t12 19t15 16t14 12q45 35 88.5 48.5t75.5 13.5q34 0 50 -8.5t21 -12.5q11 -10 17 -25t9 -31t3.5 -31t0.5 -25v-254q0 -11 5 -19t15 -8q11 0 18 10t8 24h19z M269 235q-7 -3 -21.5 -8.5t-32 -13.5t-36 -17.5t-34.5 -20.5q-14 -9 -26 -23.5t-12 -39.5q0 -30 23 -49t53 -19q13 0 26.5 4.5t24.5 10.5t20 13t15 12v151zM333 612q0 -24 -9.5 -45.5t-25.5 -37.5t-37.5 -25.5t-45.5 -9.5t-45.5 9.5t-37.5 25.5t-25 37.5t-9 45.5t9 45.5 t25 37.5t37.5 25t45.5 9t45.5 -9t37.5 -25t25.5 -37.5t9.5 -45.5zM288 612q0 30 -21.5 51.5t-51.5 21.5t-51.5 -21.5t-21.5 -51.5q0 -31 21.5 -52.5t51.5 -21.5t51.5 21.5t21.5 52.5z" glyph-name="aring" horiz-adv-x="429" unicode="å"/>
<glyph d="M269 233q-84 -32 -123 -58.5t-39 -63.5q0 -30 21 -49.5t53 -19.5q24 0 44 10t44 30v151zM343 295q-3 -19 -5 -34.5t-2 -29.5q0 -39 13 -72.5t36 -57.5t54 -37.5t67 -13.5q52 0 93.5 27.5t60.5 76.5l18 -6q-24 -76 -80 -118t-128 -42q-53 0 -97.5 24t-76.5 70 q-99 -96 -166 -96q-41 0 -67.5 25t-26.5 65q0 58 58.5 99t177.5 83v100q0 60 -56 60q-15 0 -30 -3.5t-27 -9.5t-20.5 -13.5t-10.5 -14.5q-4 -13 -4 -30t-3.5 -32t-13 -25t-32.5 -10q-17 0 -27 10t-10 27q0 20 15.5 38.5t47.5 39.5q39 26 76.5 39t69.5 13q35 0 59 -13.5 t34 -37.5q57 51 143 51q40 0 73.5 -13t58 -32.5t38 -43t13.5 -43.5t-18 -20h-305zM528 321q35 0 35 30t-25.5 52t-68.5 22q-44 0 -75.5 -27t-45.5 -77h180z" glyph-name="ae" horiz-adv-x="712" unicode="æ"/>
<glyph d="M415 131q-19 -50 -46.5 -78t-54 -42.5t-47 -18t-24.5 -3.5v-44q8 2 17.5 2.5t16.5 0.5q38 0 61.5 -21t23.5 -59q0 -42 -29.5 -64t-77.5 -22q-13 0 -48 5.5t-95 31.5l17 38q24 -14 54 -24.5t59 -10.5q31 0 43.5 13t12.5 32q0 22 -15 33t-37 11q-7 0 -17.5 -1t-16.5 -3v83 q-40 6 -72 25.5t-55 49.5t-35.5 69t-12.5 84q0 58 18.5 101.5t48.5 72.5t67.5 43.5t75.5 14.5q36 0 65.5 -11t50.5 -27.5t32.5 -36t11.5 -37.5q0 -19 -12.5 -28t-25.5 -9q-14 0 -22 7.5t-13 18.5q-4 9 -6 18.5t-6 23.5q-2 8 -5.5 18t-10.5 19t-19 15t-31 6q-26 0 -51 -11.5 t-44.5 -34t-31.5 -56.5t-12 -78q0 -50 13.5 -87.5t35.5 -62.5t49.5 -37.5t54.5 -12.5q46 0 79.5 27t50.5 64z" glyph-name="ccedilla" horiz-adv-x="444" unicode="ç"/>
<glyph d="M296 503l-161 100q-10 6 -20 16.5t-10 24.5q0 12 9 23t26 11q14 0 25.5 -9t22.5 -20l141 -146h-33zM302 323q3 0 9 0.5t11.5 3.5t9.5 9t4 17q0 32 -27 53t-65 21q-44 0 -77.5 -28t-44.5 -76h180zM118 297q-2 -16 -4.5 -38.5t-2.5 -35.5q0 -36 13 -67.5t35.5 -54.5 t53.5 -36.5t68 -13.5q53 0 93 28t60 76l19 -6q-11 -38 -31.5 -68t-48 -51t-60.5 -32t-69 -11t-73 13.5t-67 41t-49 69.5t-19 100q0 51 15.5 94.5t44 75.5t69.5 50t92 18q39 0 72.5 -12.5t58 -32t38.5 -43t14 -44.5q0 -12 -3.5 -16t-14.5 -4h-304z" glyph-name="egrave" horiz-adv-x="486" unicode="è"/>
<glyph d="M298 649q11 11 22.5 20t25.5 9q17 0 26 -11t9 -23q0 -14 -10 -24.5t-20 -16.5l-161 -100h-33zM302 323q3 0 9 0.5t11.5 3.5t9.5 9t4 17q0 32 -27 53t-65 21q-44 0 -77.5 -28t-44.5 -76h180zM118 297q-2 -16 -4.5 -38.5t-2.5 -35.5q0 -36 13 -67.5t35.5 -54.5t53.5 -36.5 t68 -13.5q53 0 93 28t60 76l19 -6q-11 -38 -31.5 -68t-48 -51t-60.5 -32t-69 -11t-73 13.5t-67 41t-49 69.5t-19 100q0 51 15.5 94.5t44 75.5t69.5 50t92 18q39 0 72.5 -12.5t58 -32t38.5 -43t14 -44.5q0 -12 -3.5 -16t-14.5 -4h-304z" glyph-name="eacute" horiz-adv-x="486" unicode="é"/>
<glyph d="M214 674h58l113 -171h-28l-114 103l-114 -103h-28zM302 323q3 0 9 0.5t11.5 3.5t9.5 9t4 17q0 32 -27 53t-65 21q-44 0 -77.5 -28t-44.5 -76h180zM118 297q-2 -16 -4.5 -38.5t-2.5 -35.5q0 -36 13 -67.5t35.5 -54.5t53.5 -36.5t68 -13.5q53 0 93 28t60 76l19 -6 q-11 -38 -31.5 -68t-48 -51t-60.5 -32t-69 -11t-73 13.5t-67 41t-49 69.5t-19 100q0 51 15.5 94.5t44 75.5t69.5 50t92 18q39 0 72.5 -12.5t58 -32t38.5 -43t14 -44.5q0 -12 -3.5 -16t-14.5 -4h-304z" glyph-name="ecircumflex" horiz-adv-x="486" unicode="ê"/>
<glyph d="M329 628q16 0 32 -13t16 -36q0 -20 -13.5 -34.5t-34.5 -14.5q-20 0 -34.5 13.5t-14.5 35.5q0 23 17 36t32 13zM157 628q15 0 32 -13t17 -36q0 -22 -14.5 -35.5t-34.5 -13.5q-21 0 -34.5 14.5t-13.5 34.5q0 23 16 36t32 13zM302 323q3 0 9 0.5t11.5 3.5t9.5 9t4 17 q0 32 -27 53t-65 21q-44 0 -77.5 -28t-44.5 -76h180zM118 297q-2 -16 -4.5 -38.5t-2.5 -35.5q0 -36 13 -67.5t35.5 -54.5t53.5 -36.5t68 -13.5q53 0 93 28t60 76l19 -6q-11 -38 -31.5 -68t-48 -51t-60.5 -32t-69 -11t-73 13.5t-67 41t-49 69.5t-19 100q0 51 15.5 94.5 t44 75.5t69.5 50t92 18q39 0 72.5 -12.5t58 -32t38.5 -43t14 -44.5q0 -12 -3.5 -16t-14.5 -4h-304z" glyph-name="edieresis" horiz-adv-x="486" unicode="ë"/>
<glyph d="M190 503l-161 100q-10 6 -20 16.5t-10 24.5q0 12 9 23t26 11q14 0 25.5 -9t22.5 -20l141 -146h-33zM178 77q0 -36 10 -48.5t45 -9.5v-19h-189v19q19 -1 30 3t16 13t6.5 23.5t1.5 34.5v225q0 23 -6.5 41.5t-39.5 29.5v12q38 11 66.5 24t48.5 24h11v-372z" glyph-name="igrave" horiz-adv-x="274" unicode="ì"/>
<glyph d="M184 649q11 11 22.5 20t25.5 9q17 0 26 -11t9 -23q0 -14 -10 -24.5t-20 -16.5l-161 -100h-33zM178 77q0 -36 10 -48.5t45 -9.5v-19h-189v19q19 -1 30 3t16 13t6.5 23.5t1.5 34.5v225q0 23 -6.5 41.5t-39.5 29.5v12q38 11 66.5 24t48.5 24h11v-372z" glyph-name="iacute" horiz-adv-x="274" unicode="í"/>
<glyph d="M108 674h58l113 -171h-28l-114 103l-114 -103h-28zM178 77q0 -36 10 -48.5t45 -9.5v-19h-189v19q19 -1 30 3t16 13t6.5 23.5t1.5 34.5v225q0 23 -6.5 41.5t-39.5 29.5v12q38 11 66.5 24t48.5 24h11v-372z" glyph-name="icircumflex" horiz-adv-x="274" unicode="î"/>
<glyph d="M223 628q16 0 32 -13t16 -36q0 -20 -13.5 -34.5t-34.5 -14.5q-20 0 -34.5 13.5t-14.5 35.5q0 23 17 36t32 13zM51 628q15 0 32 -13t17 -36q0 -22 -14.5 -35.5t-34.5 -13.5q-21 0 -34.5 14.5t-13.5 34.5q0 23 16 36t32 13zM178 77q0 -36 10 -48.5t45 -9.5v-19h-189v19 q19 -1 30 3t16 13t6.5 23.5t1.5 34.5v225q0 23 -6.5 41.5t-39.5 29.5v12q38 11 66.5 24t48.5 24h11v-372z" glyph-name="idieresis" horiz-adv-x="274" unicode="ï"/>
<glyph d="M240 12q55 0 88.5 53t33.5 154q0 102 -33.5 154t-88.5 52q-56 0 -89 -53t-33 -156q0 -100 34 -152t88 -52zM303 578q72 -87 107.5 -169t35.5 -175q0 -118 -56 -182t-150 -64q-46 0 -83.5 16.5t-64.5 46.5t-42 72.5t-15 95.5q0 52 15 94.5t42 72.5t65 46.5t83 16.5 q20 0 39.5 -3t41.5 -12q-12 30 -28.5 60t-36.5 62l-155 -72l-11 24l150 71q-18 28 -39 54.5t-45 52.5l20 15q29 -26 56 -51.5t52 -51.5l138 65l12 -24z" glyph-name="eth" horiz-adv-x="480" unicode="ð"/>
<glyph d="M412 648q-11 -58 -37 -79t-58 -21q-8 0 -18.5 1.5t-17.5 3.5l-53 14q-4 1 -11.5 2t-12.5 1q-20 0 -31 -11.5t-16 -32.5h-25q5 33 16 53t24.5 31.5t28 15.5t26.5 4q14 0 32 -5l54 -14q7 -2 13.5 -3t13.5 -1q17 0 28 8.5t18 32.5h26zM44 19q11 0 26.5 3t20.5 9 q5 5 6.5 15.5t1.5 34.5v237q0 23 -6.5 41.5t-39.5 29.5v12q42 13 69 25.5t45 22.5h9l-2 -79q21 28 42.5 44t40.5 24t34.5 10t24.5 2q43 0 73 -16.5t47 -57.5q11 -28 15.5 -64t4.5 -66v-190q0 -6 0.5 -14t7.5 -14t23 -7.5t25 -1.5v-19h-183v19q8 0 23.5 2t21.5 8q5 5 6 12.5 t1 14.5v214q0 22 -3 45t-11 41q-13 28 -33.5 38.5t-47.5 10.5q-40 0 -68 -21t-44 -50v-257q0 -35 9.5 -48.5t44.5 -9.5v-19h-184v19z" glyph-name="ntilde" horiz-adv-x="544" unicode="ñ"/>
<glyph d="M293 503l-161 100q-10 6 -20 16.5t-10 24.5q0 12 9 23t26 11q14 0 25.5 -9t22.5 -20l141 -146h-33zM240 425q-20 0 -41.5 -9.5t-39.5 -33t-29.5 -63t-11.5 -100.5t11.5 -101t29.5 -63.5t39.5 -33t41.5 -9.5q18 0 39.5 8.5t39.5 32t30.5 63.5t12.5 103q0 55 -10 94.5 t-27 64t-39 36t-46 11.5zM35 219q0 52 15 94.5t42 72.5t64.5 46.5t83.5 16.5t84 -16.5t65 -46.5t42 -72.5t15 -94.5q0 -49 -14 -91.5t-41 -73.5t-65 -48.5t-86 -17.5q-46 0 -83.5 16.5t-64.5 47t-42 73t-15 94.5z" glyph-name="ograve" horiz-adv-x="480" unicode="ò"/>
<glyph d="M295 649q11 11 22.5 20t25.5 9q17 0 26 -11t9 -23q0 -14 -10 -24.5t-20 -16.5l-161 -100h-33zM240 425q-20 0 -41.5 -9.5t-39.5 -33t-29.5 -63t-11.5 -100.5t11.5 -101t29.5 -63.5t39.5 -33t41.5 -9.5q18 0 39.5 8.5t39.5 32t30.5 63.5t12.5 103q0 55 -10 94.5t-27 64 t-39 36t-46 11.5zM35 219q0 52 15 94.5t42 72.5t64.5 46.5t83.5 16.5t84 -16.5t65 -46.5t42 -72.5t15 -94.5q0 -49 -14 -91.5t-41 -73.5t-65 -48.5t-86 -17.5q-46 0 -83.5 16.5t-64.5 47t-42 73t-15 94.5z" glyph-name="oacute" horiz-adv-x="480" unicode="ó"/>
<glyph d="M211 674h58l113 -171h-28l-114 103l-114 -103h-28zM240 425q-20 0 -41.5 -9.5t-39.5 -33t-29.5 -63t-11.5 -100.5t11.5 -101t29.5 -63.5t39.5 -33t41.5 -9.5q18 0 39.5 8.5t39.5 32t30.5 63.5t12.5 103q0 55 -10 94.5t-27 64t-39 36t-46 11.5zM35 219q0 52 15 94.5 t42 72.5t64.5 46.5t83.5 16.5t84 -16.5t65 -46.5t42 -72.5t15 -94.5q0 -49 -14 -91.5t-41 -73.5t-65 -48.5t-86 -17.5q-46 0 -83.5 16.5t-64.5 47t-42 73t-15 94.5z" glyph-name="ocircumflex" horiz-adv-x="480" unicode="ô"/>
<glyph d="M380 648q-11 -58 -37 -79t-58 -21q-8 0 -18.5 1.5t-17.5 3.5l-53 14q-4 1 -11.5 2t-12.5 1q-20 0 -31 -11.5t-16 -32.5h-25q5 33 16 53t24.5 31.5t28 15.5t26.5 4q14 0 32 -5l54 -14q7 -2 13.5 -3t13.5 -1q17 0 28 8.5t18 32.5h26zM240 425q-20 0 -41.5 -9.5t-39.5 -33 t-29.5 -63t-11.5 -100.5t11.5 -101t29.5 -63.5t39.5 -33t41.5 -9.5q18 0 39.5 8.5t39.5 32t30.5 63.5t12.5 103q0 55 -10 94.5t-27 64t-39 36t-46 11.5zM35 219q0 52 15 94.5t42 72.5t64.5 46.5t83.5 16.5t84 -16.5t65 -46.5t42 -72.5t15 -94.5q0 -49 -14 -91.5t-41 -73.5 t-65 -48.5t-86 -17.5q-46 0 -83.5 16.5t-64.5 47t-42 73t-15 94.5z" glyph-name="otilde" horiz-adv-x="480" unicode="õ"/>
<glyph d="M326 628q16 0 32 -13t16 -36q0 -20 -13.5 -34.5t-34.5 -14.5q-20 0 -34.5 13.5t-14.5 35.5q0 23 17 36t32 13zM154 628q15 0 32 -13t17 -36q0 -22 -14.5 -35.5t-34.5 -13.5q-21 0 -34.5 14.5t-13.5 34.5q0 23 16 36t32 13zM240 425q-20 0 -41.5 -9.5t-39.5 -33t-29.5 -63 t-11.5 -100.5t11.5 -101t29.5 -63.5t39.5 -33t41.5 -9.5q18 0 39.5 8.5t39.5 32t30.5 63.5t12.5 103q0 55 -10 94.5t-27 64t-39 36t-46 11.5zM35 219q0 52 15 94.5t42 72.5t64.5 46.5t83.5 16.5t84 -16.5t65 -46.5t42 -72.5t15 -94.5q0 -49 -14 -91.5t-41 -73.5t-65 -48.5 t-86 -17.5q-46 0 -83.5 16.5t-64.5 47t-42 73t-15 94.5z" glyph-name="odieresis" horiz-adv-x="480" unicode="ö"/>
<glyph d="M417 178q23 0 39.5 -16.5t16.5 -39.5t-16 -39.5t-40 -16.5q-23 0 -39.5 16.5t-16.5 39.5q0 24 16.5 40t39.5 16zM709 327v-57h-585v57h585zM417 530q23 0 39.5 -16.5t16.5 -39.5t-16 -39.5t-40 -16.5t-40 16.5t-16 39.5t16.5 39.5t39.5 16.5z" glyph-name="divide" horiz-adv-x="833" unicode="÷"/>
<glyph d="M172 37q29 -26 69 -26q59 0 91 53t32 156q0 45 -5.5 79.5t-19.5 57.5zM365 409q81 -68 81 -190q0 -53 -15 -95.5t-42 -72.5t-65 -46t-84 -16q-42 0 -85 17l-57 -113h-39l65 130q-89 65 -89 196q0 53 15 95.5t42 72.5t65.5 46t85.5 16q25 0 48 -6t46 -17l51 100h38z M318 391q-15 17 -36 26.5t-44 9.5q-55 0 -89 -54t-34 -159q0 -45 7.5 -81t25.5 -67z" glyph-name="oslash" horiz-adv-x="480" unicode="ø"/>
<glyph d="M322 503l-161 100q-10 6 -20 16.5t-10 24.5q0 12 9 23t26 11q14 0 25.5 -9t22.5 -20l141 -146h-33zM447 98q0 -21 2.5 -28.5t4.5 -9.5q5 -5 17 -8t22 -3v-12q-15 -5 -27.5 -9.5t-25 -9.5t-27 -11t-35.5 -14h-7v75q-20 -29 -41 -45t-40.5 -23.5t-35.5 -9.5t-26 -2 q-29 0 -50 7.5t-35.5 19t-23.5 24t-14 23.5q-12 26 -14 56t-2 58v203q0 8 -1.5 16t-8.5 14t-19.5 8t-21.5 2h-5v18h131v-250q0 -34 3 -62.5t12.5 -48.5t29 -31.5t52.5 -11.5q41 0 68.5 24t41.5 54v249q0 35 -8 46q-8 10 -20.5 11.5t-20.5 1.5h-5v18h130v-339z" glyph-name="ugrave" horiz-adv-x="538" unicode="ù"/>
<glyph d="M324 649q11 11 22.5 20t25.5 9q17 0 26 -11t9 -23q0 -14 -10 -24.5t-20 -16.5l-161 -100h-33zM447 98q0 -21 2.5 -28.5t4.5 -9.5q5 -5 17 -8t22 -3v-12q-15 -5 -27.5 -9.5t-25 -9.5t-27 -11t-35.5 -14h-7v75q-20 -29 -41 -45t-40.5 -23.5t-35.5 -9.5t-26 -2 q-29 0 -50 7.5t-35.5 19t-23.5 24t-14 23.5q-12 26 -14 56t-2 58v203q0 8 -1.5 16t-8.5 14t-19.5 8t-21.5 2h-5v18h131v-250q0 -34 3 -62.5t12.5 -48.5t29 -31.5t52.5 -11.5q41 0 68.5 24t41.5 54v249q0 35 -8 46q-8 10 -20.5 11.5t-20.5 1.5h-5v18h130v-339z" glyph-name="uacute" horiz-adv-x="538" unicode="ú"/>
<glyph d="M240 674h58l113 -171h-28l-114 103l-114 -103h-28zM447 98q0 -21 2.5 -28.5t4.5 -9.5q5 -5 17 -8t22 -3v-12q-15 -5 -27.5 -9.5t-25 -9.5t-27 -11t-35.5 -14h-7v75q-20 -29 -41 -45t-40.5 -23.5t-35.5 -9.5t-26 -2q-29 0 -50 7.5t-35.5 19t-23.5 24t-14 23.5 q-12 26 -14 56t-2 58v203q0 8 -1.5 16t-8.5 14t-19.5 8t-21.5 2h-5v18h131v-250q0 -34 3 -62.5t12.5 -48.5t29 -31.5t52.5 -11.5q41 0 68.5 24t41.5 54v249q0 35 -8 46q-8 10 -20.5 11.5t-20.5 1.5h-5v18h130v-339z" glyph-name="ucircumflex" horiz-adv-x="538" unicode="û"/>
<glyph d="M348 628q16 0 32 -13t16 -36q0 -20 -13.5 -34.5t-34.5 -14.5q-20 0 -34.5 13.5t-14.5 35.5q0 23 17 36t32 13zM176 628q15 0 32 -13t17 -36q0 -22 -14.5 -35.5t-34.5 -13.5q-21 0 -34.5 14.5t-13.5 34.5q0 23 16 36t32 13zM447 98q0 -21 2.5 -28.5t4.5 -9.5q5 -5 17 -8 t22 -3v-12q-15 -5 -27.5 -9.5t-25 -9.5t-27 -11t-35.5 -14h-7v75q-20 -29 -41 -45t-40.5 -23.5t-35.5 -9.5t-26 -2q-29 0 -50 7.5t-35.5 19t-23.5 24t-14 23.5q-12 26 -14 56t-2 58v203q0 8 -1.5 16t-8.5 14t-19.5 8t-21.5 2h-5v18h131v-250q0 -34 3 -62.5t12.5 -48.5 t29 -31.5t52.5 -11.5q41 0 68.5 24t41.5 54v249q0 35 -8 46q-8 10 -20.5 11.5t-20.5 1.5h-5v18h130v-339z" glyph-name="udieresis" horiz-adv-x="538" unicode="ü"/>
<glyph d="M283 649q11 11 22.5 20t25.5 9q17 0 26 -11t9 -23q0 -14 -10 -24.5t-20 -16.5l-161 -100h-33zM-12 437h213v-18l-24 -2q-17 -2 -32 -5.5t-15 -20.5q0 -2 1.5 -6.5t6.5 -15.5l140 -263l84 251q2 6 3.5 14.5t1.5 15.5q0 12 -6 19t-16 10t-23 3.5t-27 -0.5v18h169v-18 q-20 0 -33 -6t-20.5 -15t-12 -20t-7.5 -20l-164 -464q-8 -22 -15 -42t-17 -35t-23.5 -24t-34.5 -9q-24 0 -33.5 15t-9.5 29q0 21 14 30t27 9q8 0 17 -2.5t17 -2.5q18 0 24.5 10.5t9.5 18.5l42 120l-193 354q-10 19 -23.5 36t-40.5 18v18z" glyph-name="yacute" horiz-adv-x="456" unicode="ý"/>
<glyph d="M243 -215h-205v18q18 2 29 4t16.5 6.5t7 12.5t1.5 22q0 2 0.5 9.5t0.5 20.5v692q0 14 -1.5 24t-6 18t-14 15t-25.5 14v12q58 17 116 48h7v-302q63 47 134 47q44 0 80.5 -15t62.5 -43.5t40.5 -68.5t14.5 -91t-17.5 -94.5t-49 -75.5t-74 -50.5t-93.5 -18.5q-50 0 -98 17 v-144q0 -20 3 -31.5t11 -17.5t22.5 -8t37.5 -2v-18zM169 205q0 -47 4.5 -82.5t16.5 -59.5t33 -36.5t54 -12.5q29 0 55.5 14t46.5 39t31.5 59.5t11.5 76.5q0 47 -13 85t-35 65t-51 42t-61 15q-24 0 -46.5 -9t-46.5 -27v-169z" glyph-name="thorn" horiz-adv-x="544" unicode="þ"/>
<glyph d="M314 628q16 0 32 -13t16 -36q0 -20 -13.5 -34.5t-34.5 -14.5q-20 0 -34.5 13.5t-14.5 35.5q0 23 17 36t32 13zM142 628q15 0 32 -13t17 -36q0 -22 -14.5 -35.5t-34.5 -13.5q-21 0 -34.5 14.5t-13.5 34.5q0 23 16 36t32 13zM-12 437h213v-18l-24 -2q-17 -2 -32 -5.5 t-15 -20.5q0 -2 1.5 -6.5t6.5 -15.5l140 -263l84 251q2 6 3.5 14.5t1.5 15.5q0 12 -6 19t-16 10t-23 3.5t-27 -0.5v18h169v-18q-20 0 -33 -6t-20.5 -15t-12 -20t-7.5 -20l-164 -464q-8 -22 -15 -42t-17 -35t-23.5 -24t-34.5 -9q-24 0 -33.5 15t-9.5 29q0 21 14 30t27 9 q8 0 17 -2.5t17 -2.5q18 0 24.5 10.5t9.5 18.5l42 120l-193 354q-10 19 -23.5 36t-40.5 18v18z" glyph-name="ydieresis" horiz-adv-x="456" unicode="ÿ"/>
<glyph d="M585 0q-81 0 -134.5 -5.5t-81.5 -5.5q-77 0 -137.5 25.5t-102.5 72.5t-64 114t-22 151q0 81 22 145.5t63 110t99.5 70t131.5 24.5q53 0 103 -4t98 -4h422l49 -159l-20 -8q-24 38 -45.5 67t-50.5 48q-33 22 -75.5 25.5t-99.5 3.5h-85v-305h51q40 0 68.5 4t48 17.5t31 38.5 t17.5 67h18v-278h-18q-6 42 -17.5 67t-31 38.5t-48 17.5t-68.5 4h-51v-244q0 -23 3 -38t12 -23t25 -11t42 -3h61q45 0 77 7.5t58.5 26.5t51 50.5t53.5 79.5l18 -6l-37 -181h-434zM552 552q0 129 -175 129q-112 0 -169 -85.5t-57 -255.5q0 -331 239 -331q49 0 80.5 11.5 t49.5 34t25 55t7 75.5v367z" glyph-name="OE" horiz-adv-x="1071" unicode="Œ"/>
<glyph d="M240 12q55 0 88.5 53t33.5 154q0 102 -33.5 154t-88.5 52q-56 0 -89 -53t-33 -156q0 -100 34 -152t88 -52zM778 148q-24 -76 -80 -118t-128 -42q-50 0 -93 21t-73 61q-64 -82 -164 -82q-46 0 -83.5 16.5t-64.5 46.5t-42 72.5t-15 95.5q0 52 15 94.5t42 72.5t64.5 46.5 t83.5 16.5q109 0 168 -87q61 85 174 85q40 0 73.5 -13t58 -32.5t38 -43t13.5 -43.5q0 -21 -18 -21h-306q-3 -17 -4 -32.5t-1 -30.5q0 -40 13 -73t36 -57t54 -37t66 -13q53 0 94 27t60 76zM627 321q34 0 34 30t-25 51.5t-68 21.5t-75 -26.5t-46 -76.5h180z" glyph-name="oe" horiz-adv-x="811" unicode="œ"/>
<glyph d="M158 899l114 -103l114 103h28l-113 -171h-58l-113 171h28zM60 2h-13v214h22q2 -28 9.5 -57.5t22.5 -55.5t35 -43t41 -27t42.5 -14t40.5 -4q32 0 60 11t48 30q18 17 31 43.5t13 58.5q0 35 -15 57.5t-37.5 37t-48 23.5t-46.5 17l-34 13q-30 12 -59.5 27.5t-52.5 38 t-37.5 54.5t-14.5 76q0 43 15.5 80.5t42.5 65t65 43t83 15.5q38 0 66 -9t48 -19q21 -11 33 -19t18 -8q7 0 15.5 7t13.5 13h14v-204h-20q-5 29 -14.5 63.5t-22.5 58.5q-17 32 -37.5 50.5t-40 27.5t-36.5 11.5t-26 2.5q-29 0 -53 -10.5t-42 -29.5t-28 -44t-10 -53 q0 -36 12.5 -60t33 -40.5t47 -28.5t55.5 -22q38 -14 74 -29.5t63.5 -38t44.5 -54.5t17 -79t-17 -84.5t-47.5 -63.5t-72 -40.5t-90.5 -14.5q-53 0 -98.5 14.5t-80.5 34.5z" glyph-name="Scaron" horiz-adv-x="544" unicode="Š"/>
<glyph d="M80 674l114 -103l114 103h28l-113 -171h-58l-113 171h28zM50 145h19q5 -25 12.5 -49t19.5 -43t30.5 -30.5t45.5 -11.5q38 0 62.5 25t24.5 64q0 19 -7 34t-19 26t-27.5 20.5t-32.5 18.5q-23 12 -45 23.5t-39.5 26.5t-28 34.5t-10.5 47.5q0 22 8.5 43t26.5 37.5t44.5 27 t62.5 10.5q21 0 52 -6t70 -28v-106h-21q-3 36 -22 68q-20 32 -44 42.5t-42 10.5q-32 0 -53 -17.5t-21 -46.5q0 -32 19.5 -47t42.5 -28l31 -17q27 -14 46 -25t33 -22q18 -14 34 -36.5t16 -62.5q0 -34 -14 -60t-37.5 -43.5t-53.5 -26.5t-62 -9q-20 0 -51.5 5.5t-69.5 27.5v123 z" glyph-name="scaron" horiz-adv-x="387" unicode="š"/>
<glyph d="M347 853q16 0 32 -13t16 -36q0 -20 -13.5 -34.5t-34.5 -14.5q-20 0 -34.5 13.5t-14.5 35.5q0 23 17 36t32 13zM175 853q15 0 32 -13t17 -36q0 -22 -14.5 -35.5t-34.5 -13.5q-21 0 -34.5 14.5t-13.5 34.5q0 23 16 36t32 13zM314 94q0 -20 1.5 -34t8.5 -23t22 -12.5 t42 -0.5v-24h-251v24h7q18 0 30.5 0.5t20.5 7t12 21.5t4 44v217l-177 308q-5 8 -11 17t-14.5 16t-20 11.5t-26.5 4.5v23h249v-23h-17.5t-23 -3t-20 -9.5t-8.5 -18.5q0 -8 3 -13.5t6 -10.5l151 -258l120 207q11 20 20 37t9 33q0 6 -2 12.5t-8 12t-18 9.5t-32 5v20h177v-23 q-34 -1 -54 -19.5t-44 -59.5l-156 -261v-237z" glyph-name="Ydieresis" horiz-adv-x="517" unicode="Ÿ"/>
<glyph d="M206 899l114 -103l114 103h28l-113 -171h-58l-113 171h28zM468 670q-15 2 -30 3t-29 1h-112q-26 0 -51.5 -3.5t-54.5 -21.5q-26 -17 -51 -47.5t-61 -80.5l-22 -30l-18 7l67 196h494l-466 -671h96q60 0 102 1t69.5 4t44 8t26.5 13q14 11 48 52.5t82 120.5h18l-67 -222 h-556z" glyph-name="Zcaron" horiz-adv-x="640" unicode="Ž"/>
<glyph d="M109 674l114 -103l114 103h28l-113 -171h-58l-113 171h28zM28 6l270 411h-95q-24 0 -44 -1t-34 -9q-9 -5 -19 -14t-19.5 -21t-17.5 -25.5t-13 -26.5l-21 4l33 113h332v-6l-269 -409h94q45 0 68 3t40 15q2 1 7 6t14 16.5t21.5 31.5t28.5 51l15 -7l-31 -138h-360v6z" glyph-name="zcaron" horiz-adv-x="446" unicode="ž"/>
<glyph d="M386 327q-29 4 -57.5 5.5t-57.5 1.5l-24 -229q-14 -138 -59 -206.5t-126 -68.5q-23 0 -44.5 7.5t-37.5 20t-25.5 28t-9.5 30.5t8 23t19 8q18 0 23.5 -12.5t13.5 -30.5q11 -26 28 -39t37 -13q32 0 50 25.5t28.5 72.5t16.5 113.5t14 147.5l11 121h-18q-44 0 -93 -6l13 50 q37 -6 74 -6h13t13 1q11 155 63.5 232t140.5 77q27 0 49.5 -8.5t39 -21t25.5 -28t9 -29.5t-8.5 -22t-20.5 -8q-17 0 -24 13t-15 30q-24 52 -69 52q-77 0 -95 -154l-16 -133h30q23 0 46.5 1t46.5 3z" glyph-name="florin" horiz-adv-x="505" unicode="ƒ"/>
<glyph d="M221 674h58l113 -171h-28l-114 103l-114 -103h-28z" glyph-name="circumflex" unicode="ˆ"/>
<glyph d="M390 648q-11 -58 -37 -79t-58 -21q-8 0 -18.5 1.5t-17.5 3.5l-53 14q-4 1 -11.5 2t-12.5 1q-20 0 -31 -11.5t-16 -32.5h-25q5 33 16 53t24.5 31.5t28 15.5t26.5 4q14 0 32 -5l54 -14q7 -2 13.5 -3t13.5 -1q17 0 28 8.5t18 32.5h26z" glyph-name="tilde" unicode="˜"/>
<glyph d="M0 252h500v-67h-500v67z" glyph-name="endash" unicode="–"/>
<glyph d="M1000 185h-1000v67h1000v-67z" glyph-name="emdash" horiz-adv-x="1000" unicode="—"/>
<glyph d="M172 689q-36 -32 -55 -57.5t-19 -48.5q0 -17 11.5 -22t31.5 -12q50 -18 50 -57q0 -22 -15 -35.5t-39 -13.5q-34 0 -57.5 28.5t-23.5 74.5q0 45 25 84t76 76z" glyph-name="quoteleft" horiz-adv-x="252" unicode="‘"/>
<glyph d="M85 461q36 32 54.5 57.5t18.5 48.5q0 9 -3 14t-8.5 8t-13.5 5.5t-18 6.5q-49 18 -49 56q0 22 15 35.5t39 13.5q34 0 57 -28.5t23 -74.5q0 -87 -100 -160z" glyph-name="quoteright" horiz-adv-x="252" unicode="’"/>
<glyph d="M81 -134q36 32 55 57.5t19 48.5q0 17 -11.5 21.5t-31.5 12.5q-49 18 -49 56q0 22 15.5 35.5t38.5 13.5q33 0 55.5 -28t22.5 -76q0 -49 -23.5 -85t-74.5 -73z" glyph-name="quotesinglbase" horiz-adv-x="252" unicode="‚"/>
<glyph d="M359 689q-36 -32 -55 -57.5t-19 -48.5q0 -17 11.5 -22t31.5 -12q50 -18 50 -57q0 -22 -15 -35.5t-39 -13.5q-34 0 -57.5 28.5t-23.5 74.5q0 86 101 160zM171 689q-36 -32 -54.5 -57.5t-18.5 -48.5q0 -17 11.5 -22t31.5 -12q50 -18 50 -57q0 -22 -15 -35.5t-39 -13.5 q-34 0 -57.5 28.5t-23.5 74.5q0 87 100 160z" glyph-name="quotedblleft" horiz-adv-x="440" unicode="“"/>
<glyph d="M272 461q36 32 55 57.5t19 48.5q0 9 -3 14t-8.5 8t-13.5 5.5t-18 6.5q-50 18 -50 56q0 22 15 35.5t39 13.5q34 0 57.5 -28.5t23.5 -74.5q0 -86 -101 -160zM85 461q36 32 54.5 57.5t18.5 48.5q0 9 -3 14t-8.5 8t-13.5 5.5t-18 6.5q-49 18 -49 56q0 22 15 35.5t39 13.5 q34 0 57 -28.5t23 -74.5q0 -87 -100 -160z" glyph-name="quotedblright" horiz-adv-x="440" unicode="”"/>
<glyph d="M269 -134q36 32 55 57.5t19 48.5q0 17 -11.5 21.5t-31.5 12.5q-49 18 -49 56q0 22 15 35.5t38 13.5q33 0 55.5 -28t22.5 -76q0 -49 -23.5 -85t-74.5 -73zM84 -134q36 32 54.5 57.5t18.5 48.5q0 17 -11 21.5t-31 12.5q-49 18 -49 56q0 22 15 35.5t38 13.5q33 0 55.5 -28 t22.5 -76q0 -49 -23.5 -85t-74.5 -73z" glyph-name="quotedblbase" horiz-adv-x="440" unicode="„"/>
<glyph d="M238 -141q-2 97 -8.5 201.5t-35.5 221.5q24 42 34 80t10 83v15q-24 0 -43.5 -6t-36 -12.5t-31 -12t-27.5 -5.5q-23 0 -37.5 12t-14.5 35q0 20 14 33t36 13q13 0 27.5 -5t30.5 -11.5t34 -11.5t40 -5h7q1 6 1 12v12q0 31 -5.5 54t-12.5 40.5t-12.5 30t-5.5 23.5q0 22 13 36 t36 14q20 0 33.5 -14t13.5 -36q0 -11 -6 -23.5t-12.5 -30t-12.5 -40.5t-6 -54v-12t1 -12h17q18 0 34.5 5.5t32 11.5t29 11.5t25.5 5.5q24 0 38 -13.5t14 -33.5q0 -23 -14 -35t-38 -12q-14 0 -27.5 6t-29.5 12.5t-36 12.5t-46 6q1 -55 10.5 -98.5t34.5 -80.5 q-26 -108 -32.5 -212.5t-8.5 -210.5h-27z" glyph-name="dagger" unicode="†"/>
<glyph d="M221 78q-18 0 -34.5 -5.5t-32 -11.5t-29 -11.5t-25.5 -5.5q-24 0 -38 13.5t-14 33.5q0 23 14 35t38 12q13 0 27 -6t30 -12.5t36 -12.5t46 -6q-1 55 -10 99t-35 82q24 42 34 80t10 83q0 1 -0.5 4.5t-0.5 10.5q-24 0 -43.5 -6t-35.5 -12.5t-30.5 -12t-27.5 -5.5 q-23 0 -37.5 12t-14.5 35q0 20 13.5 33t35.5 13q13 0 27.5 -5t30.5 -11.5t34.5 -11.5t40.5 -5h7q1 6 1 12v12q0 31 -6 54t-12.5 40.5t-12.5 30t-6 23.5q0 22 13.5 36t36.5 14q20 0 33.5 -14t13.5 -36q0 -11 -6 -23.5t-12.5 -30t-12.5 -40.5t-6 -54v-12t1 -12h17 q18 0 34.5 5.5t32 11.5t29 11.5t25.5 5.5q24 0 38 -13.5t14 -33.5q0 -23 -14 -35t-38 -12q-14 0 -27.5 6t-29.5 12.5t-36 12.5t-46 6q1 -55 10 -99t35 -82q-24 -42 -34 -80t-10 -83v-15q24 0 43.5 6t36 12.5t30.5 12t28 5.5q23 0 37.5 -12t14.5 -35q0 -20 -13.5 -33 t-35.5 -13q-14 0 -28 5t-30 11.5t-34.5 11.5t-40.5 5h-7q-1 -6 -1 -12v-12q0 -31 6 -54t12.5 -40.5t12.5 -30.5t6 -23q0 -22 -13.5 -36t-36.5 -14q-20 0 -33.5 14t-13.5 36q0 10 6 23t12.5 30.5t12.5 40.5t6 54v12t-1 12h-17z" glyph-name="daggerdbl" unicode="‡"/>
<glyph d="M150 372q0 30 11.5 56t31 45.5t46 31t56.5 11.5t56 -11.5t45.5 -31t31 -45.5t11.5 -56t-11.5 -56t-31 -46t-46 -31.5t-56.5 -11.5t-56.5 11.5t-46 31t-30.5 46t-11 56.5z" glyph-name="bullet" horiz-adv-x="590" unicode="•"/>
<glyph d="M665 53q0 26 16.5 42.5t42.5 16.5q25 0 42 -17t17 -42q0 -24 -17.5 -41.5t-41.5 -17.5q-25 0 -42 17.5t-17 41.5zM331 53q0 26 16.5 42.5t42.5 16.5q25 0 42 -17t17 -42q0 -24 -17.5 -41.5t-41.5 -17.5q-25 0 -42 17.5t-17 41.5zM-2 53q0 26 16.5 42.5t42.5 16.5 q25 0 42 -17t17 -42q0 -24 -17.5 -41.5t-41.5 -17.5q-25 0 -42 17.5t-17 41.5z" glyph-name="ellipsis" horiz-adv-x="890" unicode="…"/>
<glyph d="M542 595q-25 -21 -56 -32t-64 -11q-29 0 -60 14q-6 -58 -25.5 -105t-48 -80.5t-62.5 -52t-70 -18.5q-51 0 -83.5 36.5t-32.5 95.5q0 39 16.5 79t48.5 77q35 39 76 59.5t79 20.5q42 0 70 -20.5t33 -57.5q27 -17 59 -17q55 0 102 28t95 82h41l-510 -725h-51zM292 647 q-47 0 -87 -33q-21 -18 -39 -44t-32 -55t-22 -58t-8 -53q0 -30 17.5 -49.5t44.5 -19.5q26 0 55 19t54 52.5t42.5 78.5t19.5 97q-14 15 -22 30t-11 35h-12zM406 119q0 45 22 93t64 86q32 30 68.5 45.5t71.5 15.5q46 0 73 -28t27 -80q0 -37 -14 -78.5t-42 -83.5 q-67 -100 -156 -100q-23 0 -44 9t-36.5 26t-24.5 41t-9 54zM647 328q-52 0 -105 -77q-38 -55 -55.5 -100t-17.5 -75q0 -27 18 -45.5t44 -18.5q32 0 61.5 23.5t60.5 70.5q26 40 39.5 76t13.5 72q0 35 -16 54.5t-43 19.5zM772 119q0 45 22.5 93t64.5 86q32 30 68.5 45.5 t71.5 15.5q46 0 73 -28t27 -80q0 -37 -14 -78.5t-42 -83.5q-67 -100 -157 -100q-23 0 -44 9t-36.5 26t-24.5 41t-9 54zM1013 328q-51 0 -104 -77q-38 -55 -55.5 -100t-17.5 -75q0 -27 17.5 -45.5t43.5 -18.5q32 0 61.5 23.5t60.5 70.5q26 40 39.5 76t13.5 72q0 35 -16 54.5 t-43 19.5z" glyph-name="perthousand" horiz-adv-x="1135" unicode="‰"/>
<glyph d="M219 96q-26 26 -60.5 59t-82.5 71q40 32 75.5 64t67.5 66l14 15q5 5 15 5q9 0 9 -10q0 -8 -14.5 -29.5t-40.5 -58.5l-38 -52l38 -52q26 -37 40.5 -58.5t14.5 -29.5q0 -11 -9 -11t-15 6z" glyph-name="guilsinglleft" horiz-adv-x="338" unicode="‹"/>
<glyph d="M105 81q-6 -6 -15 -6q-10 0 -10 11q0 8 14.5 29.5t40.5 58.5l38 52l-38 52q-26 37 -40.5 58.5t-14.5 29.5q0 10 10 10t15 -5l14 -15q32 -34 67.5 -66t75.5 -64q-48 -38 -82.5 -71t-60.5 -59z" glyph-name="guilsinglright" horiz-adv-x="338" unicode="›"/>
<glyph d="M527 225v-214h-20l-18 37q-4 7 -9 7q-11 0 -21 -6.5t-24 -14.5q-26 -16 -61.5 -31t-85.5 -15q-41 0 -89 14.5t-94 56.5q-45 42 -72 99t-36 114h-87l12 24h73q-6 48 0 93h-85l12 24h76q6 41 21.5 85t39.5 81q45 67 108 97t126 30q48 0 81 -13t56 -24l24 -12t17 -4 q8 0 13.5 4t9 9.5t5 11.5l2.5 10h18v-207h-21q-9 55 -44 108q-29 43 -66.5 68.5t-86.5 25.5q-21 0 -45 -6t-47.5 -22.5t-44.5 -45t-37 -72.5q-13 -36 -17.5 -70t-6.5 -54h368l-12 -24h-358q-2 -25 -2 -48t2 -45h319l-12 -24h-306q0 -6 1.5 -21t5.5 -35t11 -43.5t19 -46.5 q17 -35 37.5 -57t42 -34t42.5 -16.5t39 -4.5q42 0 84 22t74 71q16 26 29 60t21 58h19z" glyph-name="Euro" horiz-adv-x="505" unicode="€"/>
<glyph d="M474 702l69 -195l72 195h85v-12l-14 -1q-23 -2 -23 -26v-182q0 -24 23 -26l14 -1v-13h-115v13l15 1q22 2 22 26v193l-87 -234h-7l-85 234v-193q0 -12 6.5 -18.5t16.5 -7.5l15 -1v-13h-96v13l16 1q22 2 22 26v181q0 12 -6.5 18.5t-16.5 7.5l-15 1v13h89zM340 702l5 -87 h-12q-4 38 -19.5 56t-47.5 18h-10v-208q0 -24 22 -26l15 -1v-13h-121v13l15 1q22 2 22 26v208h-10q-32 0 -47.5 -18t-19.5 -56h-13l6 87h215z" glyph-name="trademark" horiz-adv-x="822" unicode="™"/>
<glyph d="M238 422l-32 223q-1 5 -1.5 9.5t-0.5 9.5q0 25 11 37.5t31 12.5q41 0 41 -49v-9t-1 -11l-33 -223h-15zM77 422l-31 223q-1 5 -1.5 10t-0.5 10q0 49 41 49q20 0 31 -12.5t11 -36.5q0 -4 -0.5 -9t-1.5 -11l-32 -223h-16z" glyph-name="quotedbl" horiz-adv-x="331" unicode='"'/>
<glyph d="M445 711l-82 -231h140l82 231h64l-81 -231h150l-20 -56h-151l-49 -140h162l-21 -56h-161l-81 -229h-65l81 229h-140l-81 -229h-64l81 229h-158l21 56h157l49 140h-170l21 56h170l81 231h65zM293 284h141l50 140h-142z" glyph-name="numbersign" horiz-adv-x="769" unicode="#"/>
<glyph d="M100 601q-1 8 -1.5 14.5t-0.5 14.5q0 38 13 57t35 19q20 0 34.5 -18t14.5 -50q0 -8 -0.5 -17t-1.5 -20l-38 -435h-18zM86 48q0 26 17 42.5t43 16.5q25 0 42 -17t17 -42q0 -24 -18 -42t-41 -18q-24 0 -42 17.5t-18 42.5z" glyph-name="exclam" horiz-adv-x="292" unicode="!"/>
<glyph d="M144 -87h-24l18 99q-99 34 -99 81q0 14 8.5 22.5t22.5 8.5q10 0 18 -5t16.5 -13.5t18.5 -19.5t24 -22l47 269l-9 4q-114 56 -114 157q0 39 12.5 71.5t36.5 56.5t58 37.5t76 14.5l17 87h22l-14 -87q17 -2 29.5 -4t22.5 -4l17 95h24l-18 -103q86 -30 86 -73q0 -28 -32 -28 q-23 0 -35 15t-30 31l-40 -228l18 -7q66 -23 103 -66.5t37 -101.5q0 -44 -16 -81.5t-44.5 -65t-68.5 -43.5t-87 -16h-8l-14 -81h-24l14 82q-25 3 -53 9zM168 48q24 -16 51 -22l48 274l-51 24zM282 386l41 235q-11 8 -23 13t-26 9l-43 -235zM242 21q4 0 7.5 -0.5t7.5 -0.5 q32 0 57.5 10t43.5 28t28 42t10 52q0 51 -21 79t-67 50l-19 9zM250 647q-4 0 -7 0.5t-7 0.5q-52 0 -84.5 -33t-32.5 -84q0 -38 18.5 -63.5t57.5 -43.5l15 -7z" glyph-name="dollar" horiz-adv-x="505" unicode="$"/>
<glyph d="M525 595q-25 -21 -56 -32t-64 -11q-29 0 -60 14q-6 -58 -25.5 -105t-48 -80.5t-63 -52t-70.5 -18.5q-51 0 -83.5 36.5t-32.5 95.5q0 39 17 79t49 77q35 39 76 59.5t79 20.5q42 0 70 -20.5t33 -57.5q27 -17 59 -17q55 0 102 28t95 82h41l-511 -724h-51zM388 119 q0 45 22.5 93t64.5 86q32 30 68.5 45.5t71.5 15.5q46 0 73 -28t27 -80q0 -37 -14 -78.5t-42 -83.5q-67 -100 -157 -100q-23 0 -44 9t-36.5 26t-24.5 41t-9 54zM629 328q-51 0 -104 -77q-38 -55 -55.5 -100t-17.5 -75q0 -27 17.5 -45.5t43.5 -18.5q32 0 61.5 23.5t60.5 70.5 q26 40 39.5 76t13.5 72q0 35 -16 54.5t-43 19.5zM275 647q-26 0 -47 -8t-41 -25q-21 -18 -39 -44t-32 -55t-22 -58t-8 -53q0 -30 17.5 -49.5t44.5 -19.5q26 0 55 19t54.5 52.5t43 78.5t19.5 97q-14 15 -22 30t-11 35h-12z" glyph-name="percent" horiz-adv-x="731" unicode="%"/>
</font>
</defs>
</svg>
