<?xml version="1.0" standalone="no"?>
<!DOCTYPE svg PUBLIC "-//W3C//DTD SVG 20010904//EN"
 "http://www.w3.org/TR/2001/REC-SVG-20010904/DTD/svg10.dtd">
<svg version="1.0" xmlns="http://www.w3.org/2000/svg"
 width="512.000000pt" height="512.000000pt" viewBox="0 0 512.000000 512.000000"
 preserveAspectRatio="xMidYMid meet">
<metadata>
Created by potrace 1.11, written by Peter Selinger 2001-2013
</metadata>
<g transform="translate(0.000000,512.000000) scale(0.100000,-0.100000)"
fill="#000000" stroke="none">
<path d="M370 3795 l0 -1065 120 0 120 0 1 33 c0 17 1 411 1 875 0 464 2 841
4 839 2 -2 24 -59 48 -128 42 -117 136 -360 156 -404 5 -11 90 -227 189 -480
99 -253 204 -521 233 -595 l54 -135 104 -3 105 -2 52 132 c234 596 305 776
313 793 21 47 240 615 282 734 l33 93 3 -876 2 -876 128 0 127 0 0 1065 0
1065 -175 -2 -175 -3 -176 -455 c-97 -250 -181 -466 -187 -480 -6 -14 -40
-104 -77 -200 -97 -251 -174 -452 -184 -475 -5 -11 -17 -40 -26 -65 -9 -25
-21 -56 -27 -70 -10 -26 -15 -14 -242 570 -215 549 -323 827 -347 885 -7 17
-13 32 -14 35 0 3 -23 62 -50 132 l-50 128 -172 0 -173 0 0 -1065z"/>
<path d="M3657 4818 c-9 -24 -97 -266 -197 -538 -100 -272 -185 -504 -190
-515 -9 -21 -145 -391 -185 -505 -13 -36 -34 -94 -48 -130 -13 -36 -49 -132
-80 -215 -30 -82 -58 -158 -62 -167 -7 -17 3 -18 131 -18 l139 0 105 297 c58
163 109 310 113 325 l8 28 426 -2 426 -3 26 -75 c15 -41 53 -149 84 -240 31
-91 70 -201 85 -245 l28 -80 147 -3 c137 -2 146 -1 141 15 -9 27 -74 203 -89
243 -8 19 -52 139 -99 265 -46 127 -177 482 -291 790 -114 308 -228 617 -253
687 l-47 128 -151 0 -151 0 -16 -42z m197 -290 c39 -127 75 -236 195 -588 61
-178 111 -329 111 -335 0 -7 -110 -10 -342 -9 -285 1 -342 4 -340 15 3 14 114
332 157 449 46 128 94 267 140 408 26 78 49 142 50 142 2 0 15 -37 29 -82z"/>
<path d="M3455 1788 c-120 -326 -233 -633 -251 -683 -41 -112 -99 -269 -199
-540 -42 -116 -85 -234 -96 -262 l-18 -53 137 0 137 0 47 133 c25 72 77 219
114 325 l67 192 425 -2 425 -3 64 -185 c36 -102 82 -237 104 -300 22 -63 44
-125 49 -137 9 -22 14 -23 155 -23 l145 0 -36 98 c-20 53 -60 162 -89 242 -29
80 -153 415 -275 745 -122 330 -258 700 -303 822 l-82 223 -151 0 -151 0 -218
-592z m405 240 c29 -94 59 -185 242 -721 33 -98 58 -181 54 -184 -4 -4 -572
-8 -658 -4 -10 1 -18 7 -18 14 0 12 70 216 90 262 13 29 82 228 173 498 44
130 82 237 83 237 1 0 17 -46 34 -102z"/>
</g>
</svg>
